<?xml version="1.0" standalone="no"?>
<!DOCTYPE svg PUBLIC "-//W3C//DTD SVG 1.1//EN" "http://www.w3.org/Graphics/SVG/1.1/DTD/svg11.dtd" >
<svg xmlns="http://www.w3.org/2000/svg">
<metadata></metadata>
<defs>
<font id="md_collage_alregular" horiz-adv-x="1077" >
<font-face units-per-em="2048" ascent="1638" descent="-410" />
<missing-glyph horiz-adv-x="364" />
<glyph horiz-adv-x="2048" />
<glyph horiz-adv-x="2048" />
<glyph unicode="&#xd;" horiz-adv-x="364" />
<glyph unicode=" "  horiz-adv-x="364" />
<glyph unicode="&#x09;" horiz-adv-x="364" />
<glyph unicode="&#xa0;" horiz-adv-x="364" />
<glyph unicode="!" horiz-adv-x="542" d="M47 190v281h496v-471h-305q-80 0 -135.5 55.5t-55.5 134.5zM47 518v842q0 80 55.5 135t135.5 55h305v-1032h-496z" />
<glyph unicode="&#x22;" horiz-adv-x="1093" d="M47 868v492q0 78 56.5 134t134.5 56h305v-682h-496zM600 868v492q0 78 55.5 134t132.5 56h306v-682h-494z" />
<glyph unicode="#" d="M47 190v144h334v-334h-143q-80 0 -135.5 55.5t-55.5 134.5zM47 381v270h334v-270h-334zM47 698v144q0 80 55.5 135t135.5 55h143v-334h-334zM428 0v334h270v-334h-270zM428 381v270h270v-270h-270zM428 698v334h270v-334h-270zM745 0v334h334v-144q0 -78 -56 -134 t-134 -56h-144zM745 381v270h334v-270h-334zM745 698v334h144q78 0 134 -56t56 -134v-144h-334z" />
<glyph unicode="$" d="M47 190v144h633q66 0 65 24q0 23 -22 23h-676v463q0 78 56.5 133t134.5 55h77v160h306q70 0 123 -45t63 -115h82q78 0 134 -55t56 -133v-144h-676q-25 -4 -24 -24q0 -25 24 -25h676v-461q0 -78 -56 -134t-134 -56h-78v-158h-305q-70 0 -123 45t-66 113h-79 q-78 0 -134.5 56.5t-56.5 133.5z" />
<glyph unicode="%" horiz-adv-x="909" d="M47 866q0 70 48 118t118 48t118 -48t48 -118t-48 -118t-118 -48q-68 0 -117 49.5t-49 116.5zM123 0l180 494q33 98 127 350q31 78 104.5 133t153.5 55h143l-241 -663q-16 -49 -64 -179q-31 -80 -104.5 -135t-155.5 -55h-143zM578 168q0 68 49 117t116 49q70 0 118 -48 t48 -118t-48 -119t-118 -49t-117.5 49t-47.5 119z" />
<glyph unicode="&#x26;" horiz-adv-x="1325" d="M47 190v369q0 78 56.5 134.5t134.5 56.5h305v-330q0 -25 22 -25q25 0 25 25v330h737v-304q0 -78 -56.5 -133t-133.5 -55h-58v-68q0 -78 -56 -134t-134 -56h-651q-78 0 -134.5 56.5t-56.5 133.5zM47 989v371q0 78 56.5 134t134.5 56h651q78 0 134 -56t56 -134v-371 q0 -78 -56 -134t-134 -56h-299v329q0 29 -25 29t-24 -29v-329h-303q-78 0 -134.5 56t-56.5 134z" />
<glyph unicode="'" horiz-adv-x="542" d="M47 868v492q0 78 56.5 134t134.5 56h305v-682h-496z" />
<glyph unicode="(" horiz-adv-x="890" d="M47 190v654q0 78 56.5 133t134.5 55h462q78 0 134.5 -55t56.5 -133v-146h-354v-364h354v-144q0 -78 -56.5 -134t-134.5 -56h-462q-78 0 -134.5 56.5t-56.5 133.5z" />
<glyph unicode=")" horiz-adv-x="890" d="M47 190v144h354v364h-354v146q0 78 56.5 133t134.5 55h462q78 0 134.5 -55t56.5 -133v-654q0 -78 -56.5 -134t-134.5 -56h-462q-78 0 -134.5 56.5t-56.5 133.5z" />
<glyph unicode="*" horiz-adv-x="1011" d="M47 268l248 248l-115 113q-55 55 -55 135q0 78 55 133l103 102l247 -247l113 112q55 55 133 56q80 0 135 -56l101 -100l-246 -248l113 -113q55 -55 55 -135q0 -78 -55 -133l-103 -102l-246 248l-112 -113q-55 -55 -135 -55q-76 0 -133 55z" />
<glyph unicode="+" d="M47 541v143h350v160q0 78 55.5 134t133.5 56h143v-350h160q78 0 134 -55.5t56 -132.5v-146h-350v-160q0 -78 -55.5 -133t-132.5 -55h-144v348h-159q-78 0 -134.5 56.5t-56.5 134.5z" />
<glyph unicode="," horiz-adv-x="540" d="M47 -166v635h496v-446q0 -78 -56.5 -133.5t-134.5 -55.5h-305z" />
<glyph unicode="-" horiz-adv-x="696" d="M47 539v145h461q78 0 134 -56.5t56 -133.5v-144h-460q-78 0 -134.5 55.5t-56.5 133.5z" />
<glyph unicode="." horiz-adv-x="516" d="M47 236q0 98 68.5 165.5t167.5 67.5q96 0 164.5 -68.5t68.5 -164.5q0 -98 -67.5 -167t-165.5 -69t-167 68.5t-69 167.5z" />
<glyph unicode="/" horiz-adv-x="755" d="M47 2l178 492q35 98 129 350q31 78 104.5 133t153.5 55h144l-242 -663q-16 -49 -63 -179q-31 -80 -104 -134t-157 -54h-143z" />
<glyph unicode="0" d="M47 190v654q0 78 56.5 133t134.5 55h651q78 0 134 -55t56 -133v-654q0 -78 -56 -133t-134 -55h-651q-78 0 -134.5 55.5t-56.5 132.5zM539 358q0 -25 24 -24q25 -1 25 24v318q0 25 -25 24q-25 0 -24 -24v-318z" />
<glyph unicode="1" horiz-adv-x="745" d="M47 541v303q0 80 55.5 134t135.5 54h317q78 0 134 -55t56 -133v-654q0 -78 -56 -133t-134 -55h-305v539h-203z" />
<glyph unicode="2" d="M47 190v461h676q25 0 25 25t-25 24h-676v144q0 78 56.5 133t134.5 55h651q78 0 134 -55t56 -133v-463h-676q-23 0 -22 -23q0 -25 22 -24h676v-144q0 -78 -56 -133t-134 -55h-651q-78 0 -134.5 55.5t-56.5 132.5z" />
<glyph unicode="3" d="M47 190v144h676q23 0 22 24q0 23 -22 23h-676v270h676q23 0 22 25q0 25 -22 24h-676v144q0 78 56.5 133t134.5 55h651q78 0 134 -55t56 -133v-654q0 -78 -56 -133t-134 -55h-651q-78 0 -134.5 55.5t-56.5 132.5z" />
<glyph unicode="4" d="M47 522v510h490v-698h-299q-78 0 -134.5 55t-56.5 133zM584 2v1030h495v-842q0 -78 -56 -133t-134 -55h-305z" />
<glyph unicode="5" d="M47 190v144h676q23 0 22 24q0 23 -22 23h-676v463q0 78 56.5 133t134.5 55h651q78 0 134 -55t56 -133v-144h-676q-25 0 -24 -24q0 -25 24 -25h676v-461q0 -78 -56 -133t-134 -55h-651q-78 0 -134.5 55.5t-56.5 132.5z" />
<glyph unicode="6" d="M47 190v654q0 78 56.5 133t134.5 55h651q78 0 134 -55t56 -133v-144h-676q-25 0 -24 -24q0 -25 24 -25h676v-461q0 -78 -56 -133t-134 -55h-651q-78 0 -134.5 55.5t-56.5 132.5zM379 358q0 -25 24 -24h320q22 -1 22 24q0 23 -22 23h-320q-25 0 -24 -23z" />
<glyph unicode="7" d="M47 541v303q0 78 56.5 133t134.5 55h299v-491h-490zM584 2v1030h305q78 0 134 -55t56 -133v-654q0 -78 -56 -133t-134 -55h-305z" />
<glyph unicode="8" d="M47 190v654q0 78 56.5 133t134.5 55h651q78 0 134 -55t56 -133v-654q0 -78 -56 -133t-134 -55h-651q-78 0 -134.5 55.5t-56.5 132.5zM379 358q0 -25 24 -24h320q22 -1 22 24q0 23 -22 23h-320q-25 0 -24 -23zM379 676q0 -25 24 -25h318q24 0 24 25t-24 24h-318 q-25 0 -24 -24z" />
<glyph unicode="9" d="M47 190v144h676q25 0 25 24q0 25 -25 25h-676v461q0 78 56.5 133t134.5 55h651q78 0 134 -55t56 -133v-654q0 -78 -56 -133t-134 -55h-651q-78 0 -134.5 55.5t-56.5 132.5zM381 676q0 -23 22 -23h320q22 0 22 23q0 25 -22 24h-320q-23 0 -22 -24z" />
<glyph unicode=":" horiz-adv-x="868" d="M178 190v281h496v-281q0 -78 -56.5 -134t-134.5 -56h-114q-78 0 -134.5 56.5t-56.5 133.5zM178 561v281q0 78 56.5 133t134.5 55h114q78 0 134.5 -55t56.5 -133v-281h-496z" />
<glyph unicode=";" horiz-adv-x="868" d="M178 -166v637h496v-446q0 -78 -56.5 -134.5t-134.5 -56.5h-305zM178 561v281q0 78 56.5 133t134.5 55h114q78 0 134.5 -55t56.5 -133v-281h-496z" />
<glyph unicode="&#x3c;" horiz-adv-x="890" d="M47 190v654q0 78 56.5 133t134.5 55h462q78 0 134.5 -55t56.5 -133v-146h-354v-364h354v-144q0 -78 -56.5 -134t-134.5 -56h-462q-78 0 -134.5 56.5t-56.5 133.5z" />
<glyph unicode="=" horiz-adv-x="1069" d="M47 360v144h836q78 0 132 -55.5t54 -133.5v-143h-833q-78 0 -133.5 55.5t-55.5 132.5zM47 739v144h836q78 0 132 -55.5t54 -133.5v-143h-833q-78 0 -133.5 55.5t-55.5 132.5z" />
<glyph unicode="&#x3e;" horiz-adv-x="890" d="M47 190v144h354v364h-354v146q0 78 56.5 133t134.5 55h462q78 0 134.5 -55t56.5 -133v-654q0 -78 -56.5 -134t-134.5 -56h-462q-78 0 -134.5 56.5t-56.5 133.5z" />
<glyph unicode="?" d="M47 897v463q0 80 55.5 135t135.5 55h651q80 0 135 -55t55 -135v-842h-491v676q0 25 -25 25q-23 0 -22 -25v-487h-303q-80 0 -135.5 55t-55.5 135zM588 190v279h491v-469h-303q-78 0 -133 56.5t-55 133.5z" />
<glyph unicode="@" horiz-adv-x="1615" d="M47 190v1170q0 80 55.5 135t135.5 55h1187q78 0 134.5 -56t56.5 -134v-791q0 -78 -56.5 -133t-134.5 -55h-841v813q0 23 -23 23t-22 -23v-860h1077v-144q0 -78 -55.5 -134t-133.5 -56h-1189q-78 0 -134.5 56.5t-56.5 133.5zM1075 737q0 -25 25 -24q22 -1 22 24v455 q0 25 -22 25q-25 0 -25 -25v-455z" />
<glyph unicode="A" d="M47 190v461h492v-295q0 -23 24 -22q23 0 23 22v342h-539v146q0 78 56.5 133t134.5 55h651q78 0 134 -55t56 -133v-654q0 -78 -56 -134t-134 -56h-651q-78 0 -134.5 56.5t-56.5 133.5z" />
<glyph unicode="B" d="M47 190v1170q0 78 56.5 134t134.5 56h301v-1194q0 -23 24 -22q23 0 23 22v676h303q78 0 134 -55t56 -133v-654q0 -78 -56 -134t-134 -56h-651q-78 0 -134.5 56.5t-56.5 133.5z" />
<glyph unicode="C" d="M47 190v654q0 78 56.5 133t134.5 55h651q78 0 134 -55t56 -133v-303h-676q-25 0 -24 -25q0 -23 24 -22h676v-304q0 -78 -56 -134t-134 -56h-651q-78 0 -134.5 56.5t-56.5 133.5z" />
<glyph unicode="D" horiz-adv-x="1079" d="M47 190v654q0 78 56.5 133t134.5 55h303v-676q0 -23 22 -22q25 0 25 22v1004q0 78 55 134t133 56h303v-1360q0 -78 -56 -134t-134 -56h-651q-78 0 -134.5 56.5t-56.5 133.5z" />
<glyph unicode="E" d="M47 190v654q0 78 56.5 133t134.5 55h651q78 0 134 -55t56 -133v-461h-491v293q0 25 -25 24q-23 0 -22 -24v-340h538v-146q0 -78 -56 -133t-134 -55h-651q-78 0 -134.5 55.5t-56.5 132.5z" />
<glyph unicode="F" d="M47 2v1358q0 78 56.5 134t134.5 56h651q78 0 134 -56t56 -134v-281h-542v-1077h-490zM584 541v493h305q78 0 134 -56t56 -134v-303h-495z" />
<glyph unicode="G" d="M47 -164h539v840q0 25 -23 24q-25 0 -24 -24v-674h-303q-78 0 -133.5 55.5t-55.5 132.5v654q0 78 56.5 134t134.5 56h651q78 0 134 -56t56 -134v-1151q0 -78 -56 -134.5t-134 -56.5h-653q-78 0 -133.5 56.5t-55.5 134.5v143z" />
<glyph unicode="H" d="M47 190v1170q0 78 56.5 134t134.5 56h299v-1548h-299q-78 0 -134.5 55.5t-56.5 132.5zM584 2v1032h305q78 0 134 -56t56 -134v-842h-495z" />
<glyph unicode="I" horiz-adv-x="540" d="M47 190v842h496v-1030h-305q-80 0 -135.5 54.5t-55.5 133.5zM47 1079v281q0 80 55.5 135t135.5 55h305v-471h-496z" />
<glyph unicode="J" horiz-adv-x="743" d="M47 -164h203v1198q35 -2 493 -2v-1339q0 -80 -54 -135.5t-134 -55.5h-317q-80 0 -135.5 55.5t-55.5 135.5v143zM250 1079v281q0 80 54 135t134 55h305v-471h-493z" />
<glyph unicode="K" d="M47 190v1170q0 78 56.5 134t134.5 56h299v-1548h-299q-78 0 -134.5 55.5t-56.5 132.5zM584 2v492h305q80 0 135 -55.5t55 -135.5v-301h-495zM584 541v491h495v-301q0 -78 -56 -134t-134 -56h-305z" />
<glyph unicode="L" horiz-adv-x="538" d="M47 190v1170q0 80 55.5 135t135.5 55h299v-1548h-299q-80 0 -135.5 54.5t-55.5 133.5z" />
<glyph unicode="M" horiz-adv-x="1619" d="M47 190v654q0 78 56.5 133t134.5 55h1192q78 0 133 -55t55 -133v-654q0 -78 -55.5 -133t-132.5 -55h-304v674q0 25 -22 24q-25 0 -25 -22v-676h-491v674q0 25 -25 24q-23 0 -22 -24v-674h-303q-78 0 -134.5 55.5t-56.5 132.5z" />
<glyph unicode="N" horiz-adv-x="1081" d="M47 190v654q0 78 56.5 133t134.5 55h651q78 0 134 -55t56 -133v-654q0 -78 -56 -133t-134 -55h-301v674q0 25 -25 24q-23 0 -22 -24v-674h-303q-78 0 -134.5 55.5t-56.5 132.5z" />
<glyph unicode="O" horiz-adv-x="1081" d="M47 190v654q0 78 56.5 133t134.5 55h651q78 0 134 -55t56 -133v-654q0 -78 -56 -133t-134 -55h-651q-78 0 -134.5 55.5t-56.5 132.5zM401 494h2h320q23 0 22 22q1 25 -22 25h-320q-22 0 -22 -23q0 -24 20 -24z" />
<glyph unicode="P" horiz-adv-x="1081" d="M47 -313v1157q0 78 56.5 134t134.5 56h651q78 0 134 -56t56 -134v-654q0 -78 -56 -133t-134 -55h-303v674q0 25 -23 24q-25 0 -24 -24v-1180h-301q-78 0 -134.5 56.5t-56.5 134.5z" />
<glyph unicode="Q" horiz-adv-x="1069" d="M47 188v656q0 78 55.5 133t133.5 55h647q78 0 132 -55t54 -133v-1348h-299q-78 0 -133 55.5t-55 133.5v993q0 25 -23 24q-25 0 -24 -24v-678h-299q-78 0 -133.5 55.5t-55.5 132.5z" />
<glyph unicode="R" horiz-adv-x="1081" d="M47 190v654q0 78 56.5 133t134.5 55h299v-1030h-299q-78 0 -134.5 55.5t-56.5 132.5zM584 541v491h305q78 0 134 -55t56 -133v-303h-495z" />
<glyph unicode="S" horiz-adv-x="1081" d="M47 190v144h676q23 0 22 24q0 23 -22 23h-676v463q0 78 56.5 133t134.5 55h651q78 0 134 -55t56 -133v-144h-676q-25 0 -24 -24q0 -25 24 -25h676v-461q0 -78 -56 -133t-134 -55h-651q-78 0 -134.5 55.5t-56.5 132.5z" />
<glyph unicode="T" d="M47 190v1170q0 78 56.5 134t134.5 56h299v-1056h542v-304q0 -78 -56 -133t-134 -55h-651q-78 0 -134.5 55.5t-56.5 132.5zM584 541v491h495v-301q0 -78 -56 -134t-134 -56h-305z" />
<glyph unicode="U" horiz-adv-x="1081" d="M47 190v654q0 78 56.5 133t134.5 55h301v-674q0 -25 24 -24q23 0 23 24v674h303q78 0 134 -55t56 -133v-654q0 -78 -56 -133t-134 -55h-651q-78 0 -134.5 55.5t-56.5 132.5z" />
<glyph unicode="V" horiz-adv-x="1081" d="M47 190v842h492v-674q0 -25 24 -24q23 0 23 24v674h493v-842q0 -78 -56 -133t-134 -55h-651q-78 0 -134.5 55.5t-56.5 132.5z" />
<glyph unicode="W" horiz-adv-x="1619" d="M47 190v654q0 78 56.5 133t134.5 55h301v-674q0 -25 24 -24q23 0 23 22v676h491v-674q0 -25 25 -24q25 0 24 24v674h304q78 0 133 -55t55 -133v-654q0 -78 -55.5 -133t-132.5 -55h-1192q-78 0 -134.5 55.5t-56.5 132.5z" />
<glyph unicode="X" horiz-adv-x="1081" d="M47 2v492h490v-304q0 -80 -55.5 -134t-135.5 -54h-299zM47 541v491h299q80 0 135.5 -54t55.5 -134v-303h-490zM584 190v304h495v-492h-305q-78 0 -134 55.5t-56 132.5zM584 541v303q0 78 56 133t134 55h305v-491h-495z" />
<glyph unicode="Y" horiz-adv-x="1079" d="M47 190v654q0 80 55.5 134t135.5 54h301v-674q0 -25 24 -24q25 0 25 24v674h301q80 0 135 -54t55 -134v-1348h-303q-80 0 -134 55.5t-54 135.5v313h-350q-80 0 -135.5 55.5t-55.5 134.5z" />
<glyph unicode="Z" horiz-adv-x="1081" d="M47 190v461h676q25 0 25 25t-25 24h-676v144q0 78 56.5 133t134.5 55h651q78 0 134 -55t56 -133v-463h-676q-23 0 -22 -23q0 -25 22 -24h676v-144q0 -78 -56 -133t-134 -55h-651q-78 0 -134.5 55.5t-56.5 132.5z" />
<glyph unicode="[" horiz-adv-x="892" d="M47 190v1170q0 78 56.5 134t134.5 56h462q78 0 134.5 -56t56.5 -134v-143h-354v-883h354v-144q0 -78 -56.5 -134t-134.5 -56h-462q-78 0 -134.5 56.5t-56.5 133.5z" />
<glyph unicode="\" horiz-adv-x="757" d="M47 1032h143q84 0 158 -54t103 -134l305 -842h-144q-82 0 -155.5 55.5t-102.5 132.5q-10 29 -65 179z" />
<glyph unicode="]" horiz-adv-x="892" d="M47 190v144h354v883h-354v143q0 78 56.5 134t134.5 56h462q78 0 134.5 -56t56.5 -134v-1170q0 -78 -56.5 -134t-134.5 -56h-462q-78 0 -134.5 56.5t-56.5 133.5z" />
<glyph unicode="^" horiz-adv-x="1081" d="M47 2v492h844v-304q0 -78 -55.5 -133t-133.5 -55h-655zM240 541v303q0 78 56 133t134 55h649v-491h-839z" />
<glyph unicode="_" horiz-adv-x="1081" d="M47 190v144h842q78 0 134 -56.5t56 -134.5v-143h-841q-78 0 -134.5 56.5t-56.5 133.5z" />
<glyph unicode="`" horiz-adv-x="542" d="M47 868v492q0 78 56.5 134t134.5 56h305v-682h-496z" />
<glyph unicode="a" d="M47 190v461h492v-295q0 -23 24 -22q23 0 23 22v342h-539v146q0 78 56.5 133t134.5 55h651q78 0 134 -55t56 -133v-654q0 -78 -56 -134t-134 -56h-651q-78 0 -134.5 56.5t-56.5 133.5z" />
<glyph unicode="b" d="M47 190v1170q0 78 56.5 134t134.5 56h301v-1194q0 -23 24 -22q23 0 23 22v676h303q78 0 134 -55t56 -133v-654q0 -78 -56 -134t-134 -56h-651q-78 0 -134.5 56.5t-56.5 133.5z" />
<glyph unicode="c" d="M47 190v654q0 78 56.5 133t134.5 55h651q78 0 134 -55t56 -133v-303h-676q-25 0 -24 -25q0 -23 24 -22h676v-304q0 -78 -56 -134t-134 -56h-651q-78 0 -134.5 56.5t-56.5 133.5z" />
<glyph unicode="d" horiz-adv-x="1079" d="M47 190v654q0 78 56.5 133t134.5 55h303v-676q0 -23 22 -22q25 0 25 22v1004q0 78 55 134t133 56h303v-1360q0 -78 -56 -134t-134 -56h-651q-78 0 -134.5 56.5t-56.5 133.5z" />
<glyph unicode="e" d="M47 190v654q0 78 56.5 133t134.5 55h651q78 0 134 -55t56 -133v-461h-491v293q0 25 -25 24q-23 0 -22 -24v-340h538v-146q0 -78 -56 -133t-134 -55h-651q-78 0 -134.5 55.5t-56.5 132.5z" />
<glyph unicode="f" d="M47 2v1358q0 78 56.5 134t134.5 56h651q78 0 134 -56t56 -134v-281h-542v-1077h-490zM584 541v493h305q78 0 134 -56t56 -134v-303h-495z" />
<glyph unicode="g" d="M47 -164h539v840q0 25 -23 24q-25 0 -24 -24v-674h-303q-78 0 -133.5 55.5t-55.5 132.5v654q0 78 56.5 134t134.5 56h651q78 0 134 -56t56 -134v-1151q0 -78 -56 -134.5t-134 -56.5h-653q-78 0 -133.5 56.5t-55.5 134.5v143z" />
<glyph unicode="h" d="M47 190v1170q0 78 56.5 134t134.5 56h299v-1548h-299q-78 0 -134.5 55.5t-56.5 132.5zM584 2v1032h305q78 0 134 -56t56 -134v-842h-495z" />
<glyph unicode="i" horiz-adv-x="540" d="M47 190v842h496v-1030h-305q-80 0 -135.5 54.5t-55.5 133.5zM47 1079v281q0 80 55.5 135t135.5 55h305v-471h-496z" />
<glyph unicode="j" horiz-adv-x="743" d="M47 -164h203v1198q35 -2 493 -2v-1339q0 -80 -54 -135.5t-134 -55.5h-317q-80 0 -135.5 55.5t-55.5 135.5v143zM250 1079v281q0 80 54 135t134 55h305v-471h-493z" />
<glyph unicode="k" d="M47 190v1170q0 78 56.5 134t134.5 56h299v-1548h-299q-78 0 -134.5 55.5t-56.5 132.5zM584 2v492h305q80 0 135 -55.5t55 -135.5v-301h-495zM584 541v491h495v-301q0 -78 -56 -134t-134 -56h-305z" />
<glyph unicode="l" horiz-adv-x="538" d="M47 190v1170q0 80 55.5 135t135.5 55h299v-1548h-299q-80 0 -135.5 54.5t-55.5 133.5z" />
<glyph unicode="m" horiz-adv-x="1619" d="M47 190v654q0 78 56.5 133t134.5 55h1192q78 0 133 -55t55 -133v-654q0 -78 -55.5 -133t-132.5 -55h-304v674q0 25 -22 24q-25 0 -25 -22v-676h-491v674q0 25 -25 24q-23 0 -22 -24v-674h-303q-78 0 -134.5 55.5t-56.5 132.5z" />
<glyph unicode="n" horiz-adv-x="1081" d="M47 190v654q0 78 56.5 133t134.5 55h651q78 0 134 -55t56 -133v-654q0 -78 -56 -133t-134 -55h-301v674q0 25 -25 24q-23 0 -22 -24v-674h-303q-78 0 -134.5 55.5t-56.5 132.5z" />
<glyph unicode="o" horiz-adv-x="1081" d="M47 190v654q0 78 56.5 133t134.5 55h651q78 0 134 -55t56 -133v-654q0 -78 -56 -133t-134 -55h-651q-78 0 -134.5 55.5t-56.5 132.5zM539 358q0 -24 22 -24h2h2q23 0 23 24v318q0 24 -23 24h-2q-25 0 -24 -24v-318z" />
<glyph unicode="p" horiz-adv-x="1081" d="M47 -313v1157q0 78 56.5 134t134.5 56h651q78 0 134 -56t56 -134v-654q0 -78 -56 -133t-134 -55h-303v674q0 25 -23 24q-25 0 -24 -24v-1180h-301q-78 0 -134.5 56.5t-56.5 134.5z" />
<glyph unicode="q" horiz-adv-x="1069" d="M47 188v656q0 78 55.5 133t133.5 55h647q78 0 132 -55t54 -133v-1348h-299q-78 0 -133 55.5t-55 133.5v993q0 25 -23 24q-25 0 -24 -24v-678h-299q-78 0 -133.5 55.5t-55.5 132.5z" />
<glyph unicode="r" horiz-adv-x="1081" d="M47 190v654q0 78 56.5 133t134.5 55h299v-1030h-299q-78 0 -134.5 55.5t-56.5 132.5zM584 541v491h305q78 0 134 -55t56 -133v-303h-495z" />
<glyph unicode="s" horiz-adv-x="1081" d="M47 190v144h676q23 0 22 24q0 23 -22 23h-676v463q0 78 56.5 133t134.5 55h651q78 0 134 -55t56 -133v-144h-676q-25 0 -24 -24q0 -25 24 -25h676v-461q0 -78 -56 -133t-134 -55h-651q-78 0 -134.5 55.5t-56.5 132.5z" />
<glyph unicode="t" d="M47 190v1170q0 78 56.5 134t134.5 56h299v-1056h542v-304q0 -78 -56 -133t-134 -55h-651q-78 0 -134.5 55.5t-56.5 132.5zM584 541v491h495v-301q0 -78 -56 -134t-134 -56h-305z" />
<glyph unicode="u" horiz-adv-x="1081" d="M47 190v654q0 78 56.5 133t134.5 55h301v-674q0 -25 24 -24q23 0 23 24v674h303q78 0 134 -55t56 -133v-654q0 -78 -56 -133t-134 -55h-651q-78 0 -134.5 55.5t-56.5 132.5z" />
<glyph unicode="v" horiz-adv-x="1081" d="M47 190v842h492v-674q0 -25 24 -24q23 0 23 24v674h493v-842q0 -78 -56 -133t-134 -55h-651q-78 0 -134.5 55.5t-56.5 132.5z" />
<glyph unicode="w" horiz-adv-x="1619" d="M47 190v654q0 78 56.5 133t134.5 55h301v-674q0 -25 24 -24q23 0 23 22v676h491v-674q0 -25 25 -24q25 0 24 24v674h304q78 0 133 -55t55 -133v-654q0 -78 -55.5 -133t-132.5 -55h-1192q-78 0 -134.5 55.5t-56.5 132.5z" />
<glyph unicode="x" horiz-adv-x="1081" d="M47 2v492h490v-304q0 -80 -55.5 -134t-135.5 -54h-299zM47 541v491h299q80 0 135.5 -54t55.5 -134v-303h-490zM584 190v304h495v-492h-305q-78 0 -134 55.5t-56 132.5zM584 541v303q0 78 56 133t134 55h305v-491h-495z" />
<glyph unicode="y" horiz-adv-x="1079" d="M47 190v654q0 80 55.5 134t135.5 54h301v-674q0 -25 24 -24q25 0 25 24v674h301q80 0 135 -54t55 -134v-1348h-303q-80 0 -134 55.5t-54 135.5v313h-350q-80 0 -135.5 55.5t-55.5 134.5z" />
<glyph unicode="z" horiz-adv-x="1081" d="M47 190v461h676q25 0 25 25t-25 24h-676v144q0 78 56.5 133t134.5 55h651q78 0 134 -55t56 -133v-463h-676q-23 0 -22 -23q0 -25 22 -24h676v-144q0 -78 -56 -133t-134 -55h-651q-78 0 -134.5 55.5t-56.5 132.5z" />
<glyph unicode="{" horiz-adv-x="1081" d="M47 707v303h191v350q0 78 56 134t134 56h465q78 0 133 -56t55 -134v-143h-352v-881h352v-146q0 -78 -55 -133t-133 -55h-465q-78 0 -134 55.5t-56 132.5v326q-80 0 -135.5 55.5t-55.5 135.5z" />
<glyph unicode="|" horiz-adv-x="380" d="M47 0v844q0 78 56.5 133t134.5 55h143v-842q0 -78 -56.5 -134t-134.5 -56h-143z" />
<glyph unicode="}" horiz-adv-x="1081" d="M47 190v146h354v881h-354v143q0 78 56.5 134t134.5 56h462q78 0 134.5 -56t56.5 -134v-350q80 0 135 -55.5t55 -135.5v-303h-190v-326q0 -78 -56.5 -133t-134.5 -55h-462q-78 0 -134.5 55.5t-56.5 132.5z" />
<glyph unicode="~" horiz-adv-x="1081" d="M47 541v491h649q78 0 134.5 -55t56.5 -133v-303h-840zM236 190v304h843v-492h-655q-78 0 -133 55.5t-55 132.5z" />
<glyph unicode="&#xa9;" horiz-adv-x="1079" d="M47 190v654q0 80 55.5 134t135.5 54h651q80 0 135 -54t55 -134v-654q0 -80 -55 -134t-135 -54h-651q-80 0 -135.5 54.5t-55.5 133.5zM379 334h342q25 0 24 24q0 25 -24 25h-293v268h295q22 0 22 25t-22 24h-344v-366z" />
<glyph unicode="&#xad;" horiz-adv-x="696" d="M47 539v145h461q78 0 134 -56.5t56 -133.5v-144h-460q-78 0 -134.5 55.5t-56.5 133.5z" />
<glyph unicode="&#xc4;" horiz-adv-x="1079" d="M47 190v302h490v-492h-299q-80 0 -135.5 55.5t-55.5 134.5zM47 541v301q0 80 55.5 135t135.5 55h299v-491h-490zM584 0v492h495v-302q0 -80 -55 -135t-135 -55h-305zM584 541v491h305q80 0 135 -55t55 -135v-301h-495z" />
<glyph unicode="&#x2000;" horiz-adv-x="775" />
<glyph unicode="&#x2001;" horiz-adv-x="1550" />
<glyph unicode="&#x2002;" horiz-adv-x="775" />
<glyph unicode="&#x2003;" horiz-adv-x="1550" />
<glyph unicode="&#x2004;" horiz-adv-x="516" />
<glyph unicode="&#x2005;" horiz-adv-x="387" />
<glyph unicode="&#x2006;" horiz-adv-x="258" />
<glyph unicode="&#x2007;" horiz-adv-x="258" />
<glyph unicode="&#x2008;" horiz-adv-x="193" />
<glyph unicode="&#x2009;" horiz-adv-x="310" />
<glyph unicode="&#x200a;" horiz-adv-x="86" />
<glyph unicode="&#x2010;" horiz-adv-x="696" d="M47 539v145h461q78 0 134 -56.5t56 -133.5v-144h-460q-78 0 -134.5 55.5t-56.5 133.5z" />
<glyph unicode="&#x2011;" horiz-adv-x="696" d="M47 539v145h461q78 0 134 -56.5t56 -133.5v-144h-460q-78 0 -134.5 55.5t-56.5 133.5z" />
<glyph unicode="&#x2012;" horiz-adv-x="696" d="M47 539v145h461q78 0 134 -56.5t56 -133.5v-144h-460q-78 0 -134.5 55.5t-56.5 133.5z" />
<glyph unicode="&#x2013;" horiz-adv-x="1069" d="M47 539v145h725q123 0 211 -56.5t88 -133.5v-144h-724q-122 0 -211 55.5t-89 133.5z" />
<glyph unicode="&#x2014;" horiz-adv-x="2093" d="M47 539v145h1450q246 0 422 -56.5t176 -133.5v-144h-1447q-246 0 -423.5 55.5t-177.5 133.5z" />
<glyph unicode="&#x2022;" horiz-adv-x="757" d="M143 524q0 96 70 165t166 69t165.5 -69t69.5 -165q0 -98 -68.5 -166.5t-166.5 -68.5t-167 68.5t-69 166.5z" />
<glyph unicode="&#x202f;" horiz-adv-x="310" />
<glyph unicode="&#x205f;" horiz-adv-x="387" />
<glyph unicode="&#xe000;" horiz-adv-x="1034" d="M0 0v1034h1034v-1034h-1034z" />
</font>
</defs>
</svg>
