<?xml version="1.0" encoding="utf-8"?>
<!-- Generator: Adobe Illustrator 16.0.4, SVG Export Plug-In . SVG Version: 6.00 Build 0)  -->
<!DOCTYPE svg PUBLIC "-//W3C//DTD SVG 1.1//EN" "http://www.w3.org/Graphics/SVG/1.1/DTD/svg11.dtd">
<svg version="1.1" id="logo" xmlns="http://www.w3.org/2000/svg" xmlns:xlink="http://www.w3.org/1999/xlink" x="0px" y="0px"
	 width="638.817px" height="265.036px" viewBox="0 0 638.817 265.036" enable-background="new 0 0 638.817 265.036"
	 xml:space="preserve">
<g>
	<rect x="25.202" y="106.467" opacity="0.5" fill="#DADADA" width="11.541" height="11.539"/>
	<rect x="67.525" y="106.467" opacity="0.5" fill="#DADADA" width="11.54" height="11.539"/>
	<rect x="138.063" y="106.467" opacity="0.5" fill="#DADADA" width="11.539" height="11.539"/>
	<rect x="152.17" y="106.467" opacity="0.5" fill="#DADADA" width="11.541" height="11.539"/>
	<rect x="236.816" y="106.467" opacity="0.5" fill="#DADADA" width="11.539" height="11.539"/>
	<rect x="250.924" y="106.467" opacity="0.5" fill="#DADADA" width="11.54" height="11.539"/>
	<rect x="279.139" y="106.467" opacity="0.5" fill="#DADADA" width="11.539" height="11.539"/>
	<rect x="293.247" y="106.467" opacity="0.5" fill="#DADADA" width="11.54" height="11.539"/>
	<rect x="11.096" y="120.573" opacity="0.5" fill="#DADADA" width="11.54" height="11.541"/>
	<rect x="39.312" y="120.573" opacity="0.5" fill="#DADADA" width="11.537" height="11.541"/>
	<rect x="53.418" y="120.573" opacity="0.5" fill="#DADADA" width="11.539" height="11.541"/>
	<rect x="81.634" y="120.573" opacity="0.5" fill="#DADADA" width="11.539" height="11.541"/>
	<rect x="123.957" y="120.573" opacity="0.5" fill="#DADADA" width="11.539" height="11.541"/>
	<rect x="138.063" y="120.573" opacity="0.5" fill="#DADADA" width="11.539" height="11.541"/>
	<rect x="180.386" y="120.573" opacity="0.5" fill="#DADADA" width="11.54" height="11.541"/>
	<rect x="194.493" y="120.573" opacity="0.5" fill="#DADADA" width="11.54" height="11.541"/>
	<rect x="208.601" y="120.573" opacity="0.5" fill="#DADADA" width="11.541" height="11.541"/>
	<rect x="236.816" y="120.573" opacity="0.5" fill="#DADADA" width="11.539" height="11.541"/>
	<rect x="250.924" y="120.573" opacity="0.5" fill="#DADADA" width="11.54" height="11.541"/>
	<rect x="265.031" y="120.573" opacity="0.5" fill="#DADADA" width="11.54" height="11.541"/>
	<rect x="279.139" y="120.573" opacity="0.5" fill="#DADADA" width="11.539" height="11.541"/>
	<rect x="293.247" y="120.573" opacity="0.5" fill="#DADADA" width="11.54" height="11.541"/>
	<rect x="25.202" y="134.682" opacity="0.5" fill="#DADADA" width="11.541" height="11.537"/>
	<rect x="39.312" y="134.682" opacity="0.5" fill="#DADADA" width="11.537" height="11.537"/>
	<rect x="67.525" y="134.682" opacity="0.5" fill="#DADADA" width="11.54" height="11.537"/>
	<rect x="81.634" y="134.682" opacity="0.5" fill="#DADADA" width="11.538" height="11.537"/>
	<rect x="95.741" y="134.682" opacity="0.5" fill="#DADADA" width="11.539" height="11.537"/>
	<rect x="109.847" y="134.682" opacity="0.5" fill="#DADADA" width="11.542" height="11.537"/>
	<rect x="123.957" y="134.682" opacity="0.5" fill="#DADADA" width="11.539" height="11.537"/>
	<rect x="138.063" y="134.682" opacity="0.5" fill="#DADADA" width="11.539" height="11.537"/>
	<rect x="166.279" y="134.682" opacity="0.5" fill="#DADADA" width="11.541" height="11.537"/>
	<rect x="180.386" y="134.682" opacity="0.5" fill="#DADADA" width="11.54" height="11.537"/>
	<rect x="208.601" y="134.682" opacity="0.5" fill="#DADADA" width="11.541" height="11.537"/>
	<rect x="222.71" y="134.682" opacity="0.5" fill="#DADADA" width="11.537" height="11.537"/>
	<rect x="250.924" y="134.682" opacity="0.5" fill="#DADADA" width="11.54" height="11.537"/>
	<rect x="265.031" y="134.682" opacity="0.5" fill="#DADADA" width="11.54" height="11.537"/>
	<rect x="293.247" y="134.682" opacity="0.5" fill="#DADADA" width="11.54" height="11.537"/>
	<rect x="307.355" y="134.682" opacity="0.5" fill="#DADADA" width="11.539" height="11.537"/>
	<rect x="11.096" y="148.79" opacity="0.5" fill="#DADADA" width="11.54" height="11.539"/>
	<rect x="25.202" y="148.79" opacity="0.5" fill="#DADADA" width="11.541" height="11.539"/>
	<rect x="53.418" y="148.79" opacity="0.5" fill="#DADADA" width="11.539" height="11.539"/>
	<rect x="67.525" y="148.79" opacity="0.5" fill="#DADADA" width="11.54" height="11.539"/>
	<rect x="81.634" y="148.79" opacity="0.5" fill="#DADADA" width="11.538" height="11.539"/>
	<rect x="109.847" y="148.79" opacity="0.5" fill="#DADADA" width="11.542" height="11.539"/>
	<rect x="123.957" y="148.79" opacity="0.5" fill="#DADADA" width="11.539" height="11.539"/>
	<rect x="138.063" y="148.79" opacity="0.5" fill="#DADADA" width="11.539" height="11.539"/>
	<rect x="152.17" y="148.79" opacity="0.5" fill="#DADADA" width="11.541" height="11.539"/>
	<rect x="166.279" y="148.79" opacity="0.5" fill="#DADADA" width="11.541" height="11.539"/>
	<rect x="194.493" y="148.79" opacity="0.5" fill="#DADADA" width="11.54" height="11.539"/>
	<rect x="250.924" y="148.79" opacity="0.5" fill="#DADADA" width="11.54" height="11.539"/>
	<rect x="265.031" y="148.79" opacity="0.5" fill="#DADADA" width="11.54" height="11.539"/>
	<rect x="279.139" y="148.79" opacity="0.5" fill="#DADADA" width="11.539" height="11.539"/>
	<rect x="293.247" y="148.79" opacity="0.5" fill="#DADADA" width="11.54" height="11.539"/>
	<rect x="307.355" y="148.79" opacity="0.5" fill="#DADADA" width="11.539" height="11.539"/>
	<rect x="11.096" y="162.897" opacity="0.5" fill="#DADADA" width="11.54" height="11.539"/>
	<rect x="25.202" y="162.897" opacity="0.5" fill="#DADADA" width="11.541" height="11.539"/>
	<rect x="53.418" y="162.897" opacity="0.5" fill="#DADADA" width="11.539" height="11.539"/>
	<rect x="81.634" y="162.897" opacity="0.5" fill="#DADADA" width="11.538" height="11.539"/>
	<rect x="95.741" y="162.897" opacity="0.5" fill="#DADADA" width="11.539" height="11.539"/>
	<rect x="109.847" y="162.897" opacity="0.5" fill="#DADADA" width="11.542" height="11.539"/>
	<rect x="138.063" y="162.897" opacity="0.5" fill="#DADADA" width="11.539" height="11.539"/>
	<rect x="152.17" y="162.897" opacity="0.5" fill="#DADADA" width="11.541" height="11.539"/>
	<rect x="166.279" y="162.897" opacity="0.5" fill="#DADADA" width="11.541" height="11.539"/>
	<rect x="222.71" y="162.897" opacity="0.5" fill="#DADADA" width="11.537" height="11.539"/>
	<rect x="236.816" y="162.897" opacity="0.5" fill="#DADADA" width="11.539" height="11.539"/>
	<rect x="265.031" y="162.897" opacity="0.5" fill="#DADADA" width="11.54" height="11.539"/>
	<rect x="293.247" y="162.897" opacity="0.5" fill="#DADADA" width="11.54" height="11.539"/>
	<rect x="307.355" y="162.897" opacity="0.5" fill="#DADADA" width="11.539" height="11.539"/>
	<rect x="11.096" y="177.004" opacity="0.5" fill="#DADADA" width="11.54" height="11.539"/>
	<rect x="25.202" y="177.004" opacity="0.5" fill="#DADADA" width="11.541" height="11.539"/>
	<rect x="53.418" y="177.004" opacity="0.5" fill="#DADADA" width="11.539" height="11.539"/>
	<rect x="67.525" y="177.004" opacity="0.5" fill="#DADADA" width="11.54" height="11.539"/>
	<rect x="81.634" y="177.004" opacity="0.5" fill="#DADADA" width="11.538" height="11.539"/>
	<rect x="109.847" y="177.004" opacity="0.5" fill="#DADADA" width="11.542" height="11.539"/>
	<rect x="123.957" y="177.004" opacity="0.5" fill="#DADADA" width="11.539" height="11.539"/>
	<rect x="138.063" y="177.004" opacity="0.5" fill="#DADADA" width="11.539" height="11.539"/>
	<rect x="152.17" y="177.004" opacity="0.5" fill="#DADADA" width="11.541" height="11.539"/>
	<rect x="166.279" y="177.004" opacity="0.5" fill="#DADADA" width="11.541" height="11.539"/>
	<rect x="194.493" y="177.004" opacity="0.5" fill="#DADADA" width="11.54" height="11.539"/>
	<rect x="208.601" y="177.004" opacity="0.5" fill="#DADADA" width="11.541" height="11.539"/>
	<rect x="222.71" y="177.004" opacity="0.5" fill="#DADADA" width="11.537" height="11.539"/>
	<rect x="236.816" y="177.004" opacity="0.5" fill="#DADADA" width="11.539" height="11.539"/>
	<rect x="250.924" y="177.004" opacity="0.5" fill="#DADADA" width="11.54" height="11.539"/>
	<rect x="279.139" y="177.004" opacity="0.5" fill="#DADADA" width="11.539" height="11.539"/>
	<rect x="307.355" y="177.004" opacity="0.5" fill="#DADADA" width="11.539" height="11.539"/>
	<rect x="25.202" y="191.112" opacity="0.5" fill="#DADADA" width="11.541" height="11.541"/>
	<rect x="39.312" y="191.112" opacity="0.5" fill="#DADADA" width="11.537" height="11.541"/>
	<rect x="67.525" y="191.112" opacity="0.5" fill="#DADADA" width="11.54" height="11.541"/>
	<rect x="81.634" y="191.112" opacity="0.5" fill="#DADADA" width="11.538" height="11.541"/>
	<rect x="95.741" y="191.112" opacity="0.5" fill="#DADADA" width="11.539" height="11.541"/>
	<rect x="109.847" y="191.112" opacity="0.5" fill="#DADADA" width="11.542" height="11.541"/>
	<rect x="123.957" y="191.112" opacity="0.5" fill="#DADADA" width="11.539" height="11.541"/>
	<rect x="138.063" y="191.112" opacity="0.5" fill="#DADADA" width="11.539" height="11.541"/>
	<rect x="166.279" y="191.112" opacity="0.5" fill="#DADADA" width="11.541" height="11.541"/>
	<rect x="180.386" y="191.112" opacity="0.5" fill="#DADADA" width="11.54" height="11.541"/>
	<rect x="208.601" y="191.112" opacity="0.5" fill="#DADADA" width="11.541" height="11.541"/>
	<rect x="250.924" y="191.112" opacity="0.5" fill="#DADADA" width="11.54" height="11.541"/>
	<rect x="265.031" y="191.112" opacity="0.5" fill="#DADADA" width="11.54" height="11.541"/>
	<rect x="293.247" y="191.112" opacity="0.5" fill="#DADADA" width="11.54" height="11.541"/>
	<rect x="307.355" y="191.112" opacity="0.5" fill="#DADADA" width="11.539" height="11.541"/>
	<rect x="11.096" y="205.219" opacity="0.5" fill="#DADADA" width="11.54" height="11.539"/>
	<rect x="39.312" y="205.219" opacity="0.5" fill="#DADADA" width="11.537" height="11.539"/>
	<rect x="53.418" y="205.219" opacity="0.5" fill="#DADADA" width="11.539" height="11.539"/>
	<rect x="95.741" y="205.219" opacity="0.5" fill="#DADADA" width="11.539" height="11.539"/>
	<rect x="123.957" y="205.219" opacity="0.5" fill="#DADADA" width="11.539" height="11.539"/>
	<rect x="138.063" y="205.219" opacity="0.5" fill="#DADADA" width="11.539" height="11.539"/>
	<rect x="180.386" y="205.219" opacity="0.5" fill="#DADADA" width="11.54" height="11.539"/>
	<rect x="194.493" y="205.219" opacity="0.5" fill="#DADADA" width="11.54" height="11.539"/>
	<rect x="208.601" y="205.219" opacity="0.5" fill="#DADADA" width="11.541" height="11.539"/>
	<rect x="236.816" y="205.219" opacity="0.5" fill="#DADADA" width="11.539" height="11.539"/>
	<rect x="250.924" y="205.219" opacity="0.5" fill="#DADADA" width="11.54" height="11.539"/>
	<rect x="265.031" y="205.219" opacity="0.5" fill="#DADADA" width="11.54" height="11.539"/>
	<rect x="279.139" y="205.219" opacity="0.5" fill="#DADADA" width="11.539" height="11.539"/>
	<rect x="293.247" y="205.219" opacity="0.5" fill="#DADADA" width="11.54" height="11.539"/>
	<rect x="307.355" y="205.219" opacity="0.5" fill="#DADADA" width="11.539" height="11.539"/>
	<rect x="25.202" y="219.325" opacity="0.5" fill="#DADADA" width="11.541" height="11.541"/>
	<rect x="67.525" y="219.325" opacity="0.5" fill="#DADADA" width="11.54" height="11.541"/>
	<rect x="95.741" y="219.325" opacity="0.5" fill="#DADADA" width="11.539" height="11.541"/>
	<rect x="138.063" y="219.325" opacity="0.5" fill="#DADADA" width="11.539" height="11.541"/>
	<rect x="152.17" y="219.325" opacity="0.5" fill="#DADADA" width="11.541" height="11.541"/>
	<rect x="236.816" y="219.325" opacity="0.5" fill="#DADADA" width="11.539" height="11.541"/>
	<rect x="307.355" y="219.325" opacity="0.5" fill="#DADADA" width="11.539" height="11.541"/>
	<rect x="377.776" y="106.593" opacity="0.5" fill="#DADADA" width="11.538" height="11.54"/>
	<rect x="448.312" y="106.593" opacity="0.5" fill="#DADADA" width="11.542" height="11.54"/>
	<rect x="462.421" y="106.593" opacity="0.5" fill="#DADADA" width="11.539" height="11.54"/>
	<rect x="321.346" y="120.7" opacity="0.5" fill="#DADADA" width="11.539" height="11.54"/>
	<rect x="349.561" y="120.7" opacity="0.5" fill="#DADADA" width="11.54" height="11.54"/>
	<rect x="363.667" y="120.7" opacity="0.5" fill="#DADADA" width="11.541" height="11.54"/>
	<rect x="405.991" y="120.7" opacity="0.5" fill="#DADADA" width="11.539" height="11.54"/>
	<rect x="434.205" y="120.7" opacity="0.5" fill="#DADADA" width="11.541" height="11.54"/>
	<rect x="448.312" y="120.7" opacity="0.5" fill="#DADADA" width="11.542" height="11.54"/>
	<rect x="335.454" y="134.807" opacity="0.5" fill="#DADADA" width="11.539" height="11.539"/>
	<rect x="349.561" y="134.807" opacity="0.5" fill="#DADADA" width="11.54" height="11.539"/>
	<rect x="377.776" y="134.807" opacity="0.5" fill="#DADADA" width="11.538" height="11.539"/>
	<rect x="391.883" y="134.807" opacity="0.5" fill="#DADADA" width="11.539" height="11.539"/>
	<rect x="405.991" y="134.807" opacity="0.5" fill="#DADADA" width="11.539" height="11.539"/>
	<rect x="420.099" y="134.807" opacity="0.5" fill="#DADADA" width="11.54" height="11.539"/>
	<rect x="434.205" y="134.807" opacity="0.5" fill="#DADADA" width="11.541" height="11.539"/>
	<rect x="448.312" y="134.807" opacity="0.5" fill="#DADADA" width="11.542" height="11.539"/>
	<rect x="321.346" y="148.915" opacity="0.5" fill="#DADADA" width="11.539" height="11.541"/>
	<rect x="335.454" y="148.915" opacity="0.5" fill="#DADADA" width="11.539" height="11.541"/>
	<rect x="363.667" y="148.915" opacity="0.5" fill="#DADADA" width="11.541" height="11.541"/>
	<rect x="377.776" y="148.915" opacity="0.5" fill="#DADADA" width="11.538" height="11.541"/>
	<rect x="391.883" y="148.915" opacity="0.5" fill="#DADADA" width="11.539" height="11.541"/>
	<rect x="420.099" y="148.915" opacity="0.5" fill="#DADADA" width="11.54" height="11.541"/>
	<rect x="434.205" y="148.915" opacity="0.5" fill="#DADADA" width="11.541" height="11.541"/>
	<rect x="448.312" y="148.915" opacity="0.5" fill="#DADADA" width="11.542" height="11.541"/>
	<rect x="462.421" y="148.915" opacity="0.5" fill="#DADADA" width="11.539" height="11.541"/>
	<rect x="335.454" y="163.022" opacity="0.5" fill="#DADADA" width="11.539" height="11.541"/>
	<rect x="363.667" y="163.022" opacity="0.5" fill="#DADADA" width="11.541" height="11.541"/>
	<rect x="391.883" y="163.022" opacity="0.5" fill="#DADADA" width="11.539" height="11.541"/>
	<rect x="405.991" y="163.022" opacity="0.5" fill="#DADADA" width="11.539" height="11.541"/>
	<rect x="420.099" y="163.022" opacity="0.5" fill="#DADADA" width="11.54" height="11.541"/>
	<rect x="448.312" y="163.022" opacity="0.5" fill="#DADADA" width="11.542" height="11.541"/>
	<rect x="321.346" y="177.131" opacity="0.5" fill="#DADADA" width="11.539" height="11.539"/>
	<rect x="335.454" y="177.131" opacity="0.5" fill="#DADADA" width="11.539" height="11.539"/>
	<rect x="363.667" y="177.131" opacity="0.5" fill="#DADADA" width="11.541" height="11.539"/>
	<rect x="377.776" y="177.131" opacity="0.5" fill="#DADADA" width="11.538" height="11.539"/>
	<rect x="391.883" y="177.131" opacity="0.5" fill="#DADADA" width="11.539" height="11.539"/>
	<rect x="420.099" y="177.131" opacity="0.5" fill="#DADADA" width="11.54" height="11.539"/>
	<rect x="434.205" y="177.131" opacity="0.5" fill="#DADADA" width="11.541" height="11.539"/>
	<rect x="448.312" y="177.131" opacity="0.5" fill="#DADADA" width="11.542" height="11.539"/>
	<rect x="335.454" y="191.239" opacity="0.5" fill="#DADADA" width="11.539" height="11.539"/>
	<rect x="349.561" y="191.239" opacity="0.5" fill="#DADADA" width="11.54" height="11.539"/>
	<rect x="377.776" y="191.239" opacity="0.5" fill="#DADADA" width="11.538" height="11.539"/>
	<rect x="391.883" y="191.239" opacity="0.5" fill="#DADADA" width="11.539" height="11.539"/>
	<rect x="405.991" y="191.239" opacity="0.5" fill="#DADADA" width="11.539" height="11.539"/>
	<rect x="420.099" y="191.239" opacity="0.5" fill="#DADADA" width="11.54" height="11.539"/>
	<rect x="434.205" y="191.239" opacity="0.5" fill="#DADADA" width="11.541" height="11.539"/>
	<rect x="448.312" y="191.239" opacity="0.5" fill="#DADADA" width="11.542" height="11.539"/>
	<rect x="321.346" y="205.346" opacity="0.5" fill="#DADADA" width="11.539" height="11.537"/>
	<rect x="349.561" y="205.346" opacity="0.5" fill="#DADADA" width="11.54" height="11.537"/>
	<rect x="363.667" y="205.346" opacity="0.5" fill="#DADADA" width="11.541" height="11.537"/>
	<rect x="405.991" y="205.346" opacity="0.5" fill="#DADADA" width="11.539" height="11.537"/>
	<rect x="434.205" y="205.346" opacity="0.5" fill="#DADADA" width="11.541" height="11.537"/>
	<rect x="448.312" y="205.346" opacity="0.5" fill="#DADADA" width="11.542" height="11.537"/>
	<rect x="335.454" y="219.452" opacity="0.5" fill="#DADADA" width="11.539" height="11.541"/>
	<rect x="405.991" y="219.452" opacity="0.5" fill="#DADADA" width="11.539" height="11.541"/>
	<rect x="448.312" y="219.452" opacity="0.5" fill="#DADADA" width="11.542" height="11.541"/>
	<rect x="490.464" y="106.582" opacity="0.5" fill="#DADADA" width="11.542" height="11.54"/>
	<rect x="532.787" y="106.582" opacity="0.5" fill="#DADADA" width="11.541" height="11.54"/>
	<rect x="476.357" y="120.689" opacity="0.5" fill="#DADADA" width="11.54" height="11.54"/>
	<rect x="504.573" y="120.689" opacity="0.5" fill="#DADADA" width="11.538" height="11.54"/>
	<rect x="518.68" y="120.689" opacity="0.5" fill="#DADADA" width="11.539" height="11.54"/>
	<rect x="490.464" y="134.797" opacity="0.5" fill="#DADADA" width="11.542" height="11.539"/>
	<rect x="504.573" y="134.797" opacity="0.5" fill="#DADADA" width="11.538" height="11.539"/>
	<rect x="532.787" y="134.797" opacity="0.5" fill="#DADADA" width="11.541" height="11.539"/>
	<rect x="476.357" y="148.905" opacity="0.5" fill="#DADADA" width="11.54" height="11.541"/>
	<rect x="490.464" y="148.905" opacity="0.5" fill="#DADADA" width="11.542" height="11.541"/>
	<rect x="518.68" y="148.905" opacity="0.5" fill="#DADADA" width="11.539" height="11.541"/>
	<rect x="532.787" y="148.905" opacity="0.5" fill="#DADADA" width="11.541" height="11.541"/>
	<rect x="476.357" y="163.012" opacity="0.5" fill="#DADADA" width="11.54" height="11.539"/>
	<rect x="490.464" y="163.012" opacity="0.5" fill="#DADADA" width="11.542" height="11.539"/>
	<rect x="518.68" y="163.012" opacity="0.5" fill="#DADADA" width="11.539" height="11.539"/>
	<rect x="476.357" y="177.12" opacity="0.5" fill="#DADADA" width="11.54" height="11.541"/>
	<rect x="490.464" y="177.12" opacity="0.5" fill="#DADADA" width="11.542" height="11.541"/>
	<rect x="518.68" y="177.12" opacity="0.5" fill="#DADADA" width="11.539" height="11.541"/>
	<rect x="490.464" y="191.229" opacity="0.5" fill="#DADADA" width="11.542" height="11.539"/>
	<rect x="504.573" y="191.229" opacity="0.5" fill="#DADADA" width="11.538" height="11.539"/>
	<rect x="476.357" y="205.334" opacity="0.5" fill="#DADADA" width="11.54" height="11.539"/>
	<rect x="504.573" y="205.334" opacity="0.5" fill="#DADADA" width="11.538" height="11.539"/>
	<rect x="490.464" y="219.442" opacity="0.5" fill="#DADADA" width="11.542" height="11.541"/>
	<rect x="546.983" y="106.582" opacity="0.5" fill="#DADADA" width="11.541" height="11.54"/>
	<linearGradient id="SVGID_1_" gradientUnits="userSpaceOnUse" x1="0" y1="167.5239" x2="195.4541" y2="167.5239">
		<stop  offset="0" style="stop-color:#C6C6C6"/>
		<stop  offset="1" style="stop-color:#F6F6F6"/>
	</linearGradient>
	<path fill="url(#SVGID_1_)" stroke="#F6F6F6" d="M35.586,71.313c51.328,0,111.821,192.421,159.868,192.421h-35.586
		C111.821,263.735,51.328,71.313,0,71.313H35.586z"/>
	<linearGradient id="SVGID_2_" gradientUnits="userSpaceOnUse" x1="202.7607" y1="167.5239" x2="398.2148" y2="167.5239">
		<stop  offset="0" style="stop-color:#C6C6C6"/>
		<stop  offset="1" style="stop-color:#F6F6F6"/>
	</linearGradient>
	<path fill="url(#SVGID_2_)" stroke="#F6F6F6" d="M202.761,71.313c51.328,0,111.82,192.421,159.868,192.421h35.586
		c-48.048,0-108.54-192.421-159.869-192.421H202.761z"/>
	<linearGradient id="SVGID_3_" gradientUnits="userSpaceOnUse" x1="319.6904" y1="167.8286" x2="544.8301" y2="167.8286">
		<stop  offset="0" style="stop-color:#C6C6C6"/>
		<stop  offset="1" style="stop-color:#F6F6F6"/>
	</linearGradient>
	<path fill="url(#SVGID_3_)" stroke="#F6F6F6" d="M319.69,71.313c51.328,0,113.067,193.031,161.114,193.031l64.025-0.016
		c-48.047,0-138.226-193.015-189.554-193.015H319.69z"/>
	<linearGradient id="SVGID_4_" gradientUnits="userSpaceOnUse" x1="522.5" y1="167.8306" x2="638.8145" y2="167.8306">
		<stop  offset="0" style="stop-color:#C6C6C6"/>
		<stop  offset="1" style="stop-color:#F6F6F6"/>
	</linearGradient>
	<path fill="url(#SVGID_4_)" stroke="#F6F6F6" d="M522.5,71.313c51.326,0,77.901,192.968,109.737,193.035h6.577
		c-40.025,0.201-29.4-193.035-80.728-193.035H522.5z"/>
	<linearGradient id="SVGID_5_" gradientUnits="userSpaceOnUse" x1="42.8945" y1="167.5249" x2="238.3496" y2="167.5249">
		<stop  offset="0" style="stop-color:#C6C6C6"/>
		<stop  offset="1" style="stop-color:#F6F6F6"/>
	</linearGradient>
	<path fill="url(#SVGID_5_)" stroke="#F6F6F6" d="M238.35,71.313c-51.329,0-111.822,192.423-159.869,192.423H42.895
		c48.047,0,108.54-192.423,159.869-192.423H238.35z"/>
	<linearGradient id="SVGID_6_" gradientUnits="userSpaceOnUse" x1="159.7988" y1="167.5239" x2="355.2549" y2="167.5239">
		<stop  offset="0" style="stop-color:#C6C6C6"/>
		<stop  offset="1" style="stop-color:#F6F6F6"/>
	</linearGradient>
	<path fill="url(#SVGID_6_)" stroke="#F6F6F6" d="M355.255,71.313c-51.33,0-111.823,192.421-159.87,192.421h-35.586
		c48.047,0,108.54-192.421,159.869-192.421H355.255z"/>
	<linearGradient id="SVGID_7_" gradientUnits="userSpaceOnUse" x1="362.6309" y1="167.5239" x2="558.0869" y2="167.5239">
		<stop  offset="0" style="stop-color:#C6C6C6"/>
		<stop  offset="1" style="stop-color:#F6F6F6"/>
	</linearGradient>
	<path fill="url(#SVGID_7_)" stroke="#F6F6F6" d="M522.5,71.313c-51.329,0-111.821,192.421-159.869,192.421h35.586
		c48.048,0,108.541-192.421,159.87-192.421H522.5z"/>
	<linearGradient id="SVGID_8_" gradientUnits="userSpaceOnUse" x1="202.7637" y1="71.3135" x2="202.7637" y2="71.3135">
		<stop  offset="0" style="stop-color:#C6C6C6"/>
		<stop  offset="1" style="stop-color:#F6F6F6"/>
	</linearGradient>
	<path fill="url(#SVGID_8_)" stroke="#F6F6F6" d="M202.764,71.313"/>
	<linearGradient id="SVGID_9_" gradientUnits="userSpaceOnUse" x1="202.7637" y1="71.3135" x2="202.7637" y2="71.3135">
		<stop  offset="0" style="stop-color:#C6C6C6"/>
		<stop  offset="1" style="stop-color:#F6F6F6"/>
	</linearGradient>
	<path fill="url(#SVGID_9_)" stroke="#F6F6F6" d="M202.764,71.313"/>
	<polygon fill-rule="evenodd" clip-rule="evenodd" fill="#00689E" points="542.583,244.633 536.147,244.633 536.147,243.391 
		538.74,243.391 538.74,233.883 536.292,235.1 536.292,233.684 538.937,232.317 540.158,232.317 540.158,243.391 542.583,243.391 	
		"/>
	<path fill-rule="evenodd" clip-rule="evenodd" fill="#00689E" d="M552.132,232.159c1.294,0,2.292,0.559,2.981,1.662
		c0.702,1.119,1.051,2.68,1.051,4.695c0,1.955-0.336,3.5-1.016,4.641c-0.677,1.139-1.678,1.705-3.017,1.705
		c-1.293,0-2.287-0.553-2.983-1.664c-0.704-1.111-1.05-2.672-1.05-4.682c0-1.953,0.338-3.5,1.012-4.645
		C549.794,232.723,550.798,232.159,552.132,232.159z M552.132,243.612c0.853,0,1.486-0.4,1.897-1.209
		c0.419-0.82,0.629-2.111,0.629-3.887c0-1.781-0.21-3.078-0.629-3.879c-0.411-0.816-1.045-1.217-1.897-1.217
		c-0.847,0-1.475,0.422-1.893,1.244c-0.413,0.82-0.622,2.113-0.622,3.852c0,1.768,0.201,3.059,0.611,3.875
		C550.646,243.204,551.282,243.612,552.132,243.612z"/>
	<polygon fill-rule="evenodd" clip-rule="evenodd" fill="#00689E" points="568.723,244.633 562.287,244.633 562.287,243.391 
		564.883,243.391 564.883,233.883 562.433,235.1 562.433,233.684 565.08,232.317 566.302,232.317 566.302,243.391 568.723,243.391 	
		"/>
	<path fill-rule="evenodd" clip-rule="evenodd" fill="#00689E" d="M578.271,232.159c1.297,0,2.293,0.559,2.983,1.662
		c0.703,1.119,1.049,2.68,1.049,4.695c0,1.955-0.339,3.5-1.011,4.641c-0.674,1.139-1.686,1.705-3.021,1.705
		c-1.291,0-2.285-0.553-2.982-1.664c-0.701-1.111-1.05-2.672-1.05-4.682c0-1.953,0.339-3.5,1.015-4.645
		C575.938,232.723,576.942,232.159,578.271,232.159z M578.271,243.612c0.856,0,1.492-0.4,1.898-1.209
		c0.418-0.82,0.629-2.111,0.629-3.887c0-1.781-0.211-3.078-0.629-3.879c-0.406-0.816-1.042-1.217-1.898-1.217
		c-0.85,0-1.471,0.422-1.891,1.244c-0.416,0.82-0.626,2.113-0.626,3.852c0,1.768,0.21,3.059,0.615,3.875
		C576.786,243.204,577.421,243.612,578.271,243.612z"/>
	<polygon fill-rule="evenodd" clip-rule="evenodd" fill="#00689E" points="594.865,244.633 588.427,244.633 588.427,243.391 
		591.02,243.391 591.02,233.883 588.572,235.1 588.572,233.684 591.22,232.317 592.445,232.317 592.445,243.391 594.865,243.391 	
		"/>
	<path fill-rule="evenodd" clip-rule="evenodd" fill="#00689E" d="M604.409,232.159c1.299,0,2.294,0.559,2.983,1.662
		c0.705,1.119,1.054,2.68,1.054,4.695c0,1.955-0.335,3.5-1.019,4.641c-0.67,1.139-1.681,1.705-3.019,1.705
		c-1.283,0-2.284-0.553-2.981-1.664c-0.698-1.111-1.05-2.672-1.05-4.682c0-1.953,0.339-3.5,1.015-4.645
		C602.074,232.723,603.081,232.159,604.409,232.159z M604.409,243.612c0.857,0,1.492-0.4,1.9-1.209
		c0.416-0.82,0.628-2.111,0.628-3.887c0-1.781-0.212-3.078-0.628-3.879c-0.408-0.816-1.043-1.217-1.9-1.217
		c-0.845,0-1.473,0.422-1.891,1.244c-0.415,0.82-0.625,2.113-0.625,3.852c0,1.768,0.206,3.059,0.618,3.875
		C602.927,243.204,603.561,243.612,604.409,243.612z"/>
	<polygon fill-rule="evenodd" clip-rule="evenodd" fill="#00689E" points="621.002,244.633 614.566,244.633 614.566,243.391 
		617.163,243.391 617.163,233.883 614.716,235.1 614.716,233.684 617.363,232.317 618.585,232.317 618.585,243.391 621.002,243.391 
			"/>
	<path fill-rule="evenodd" clip-rule="evenodd" fill="#00689E" d="M630.55,232.159c1.298,0,2.289,0.559,2.989,1.662
		c0.697,1.119,1.043,2.68,1.043,4.695c0,1.955-0.335,3.5-1.012,4.641c-0.68,1.139-1.681,1.705-3.021,1.705
		c-1.288,0-2.285-0.553-2.982-1.664c-0.701-1.111-1.05-2.672-1.05-4.682c0-1.953,0.339-3.5,1.015-4.645
		C628.217,232.723,629.225,232.159,630.55,232.159z M630.55,243.612c0.859,0,1.492-0.4,1.902-1.209
		c0.414-0.82,0.624-2.111,0.624-3.887c0-1.781-0.21-3.078-0.624-3.879c-0.41-0.816-1.043-1.217-1.902-1.217
		c-0.842,0-1.47,0.422-1.889,1.244c-0.417,0.82-0.624,2.113-0.624,3.852c0,1.768,0.207,3.059,0.614,3.875
		C629.065,243.204,629.701,243.612,630.55,243.612z"/>
	<polygon fill-rule="evenodd" clip-rule="evenodd" fill="#00689E" points="571.843,163.28 564.486,163.28 564.486,161.866 
		567.448,161.866 567.448,150.991 564.651,152.393 564.651,150.77 567.68,149.217 569.074,149.217 569.074,161.866 571.843,161.866 
			"/>
	<path fill-rule="evenodd" clip-rule="evenodd" fill="#00689E" d="M587.851,148.983c1.48,0,2.617,0.648,3.411,1.918
		c0.8,1.271,1.197,3.053,1.197,5.352c0,2.223-0.387,3.998-1.16,5.301c-0.772,1.307-1.918,1.955-3.448,1.955
		c-1.475,0-2.61-0.635-3.411-1.904c-0.798-1.266-1.2-3.045-1.2-5.352c0-2.23,0.389-4.006,1.163-5.303
		C585.182,149.637,586.331,148.983,587.851,148.983z M587.851,162.086c0.977,0,1.701-0.463,2.171-1.387
		c0.477-0.941,0.719-2.41,0.719-4.447s-0.242-3.514-0.719-4.434c-0.47-0.918-1.194-1.387-2.171-1.387
		c-0.964,0-1.688,0.477-2.165,1.422c-0.47,0.939-0.71,2.41-0.71,4.398c0,2.021,0.233,3.494,0.703,4.432
		C586.155,161.616,586.88,162.086,587.851,162.086z"/>
	<path fill-rule="evenodd" clip-rule="evenodd" fill="#00689E" d="M608.47,148.983c1.478,0,2.617,0.648,3.411,1.918
		c0.798,1.271,1.197,3.053,1.197,5.352c0,2.223-0.386,3.998-1.164,5.301c-0.772,1.307-1.918,1.955-3.444,1.955
		c-1.474,0-2.617-0.635-3.411-1.904c-0.8-1.266-1.201-3.045-1.201-5.352c0-2.23,0.388-4.006,1.16-5.303
		C605.798,149.637,606.947,148.983,608.47,148.983z M608.47,162.086c0.981,0,1.698-0.463,2.172-1.387
		c0.473-0.941,0.71-2.41,0.71-4.447s-0.237-3.514-0.71-4.434c-0.474-0.918-1.19-1.387-2.172-1.387c-0.966,0-1.684,0.477-2.16,1.422
		c-0.478,0.939-0.716,2.41-0.716,4.398c0,2.021,0.238,3.494,0.708,4.432C606.771,161.616,607.501,162.086,608.47,162.086z"/>
	<polygon fill-rule="evenodd" clip-rule="evenodd" fill="#00689E" points="631.833,163.28 624.478,163.28 624.478,161.866 
		627.443,161.866 627.443,150.991 624.646,152.393 624.646,150.77 627.671,149.217 629.065,149.217 629.065,161.866 
		631.833,161.866 	"/>
	<polygon fill-rule="evenodd" clip-rule="evenodd" fill="#00689E" points="554.292,224.198 546.933,224.198 546.933,222.782 
		549.897,222.782 549.897,211.915 547.104,213.309 547.104,211.688 550.129,210.125 551.523,210.125 551.523,222.782 
		554.292,222.782 	"/>
	<path fill-rule="evenodd" clip-rule="evenodd" fill="#00689E" d="M567.745,209.907c1.48,0,2.62,0.627,3.411,1.904
		c0.801,1.271,1.196,3.059,1.196,5.357c0,2.223-0.378,3.992-1.154,5.303c-0.774,1.305-1.924,1.953-3.453,1.953
		c-1.474,0-2.613-0.635-3.411-1.904c-0.801-1.271-1.198-3.053-1.198-5.352c0-2.236,0.388-4.006,1.16-5.311
		C565.076,210.555,566.226,209.907,567.745,209.907z M567.745,222.995c0.98,0,1.702-0.461,2.171-1.387
		c0.477-0.932,0.718-2.416,0.718-4.439c0-2.037-0.241-3.514-0.718-4.432c-0.469-0.934-1.19-1.389-2.171-1.389
		c-0.963,0-1.688,0.469-2.158,1.416c-0.476,0.945-0.715,2.416-0.715,4.404c0,2.018,0.236,3.488,0.701,4.426
		C566.05,222.534,566.775,222.995,567.745,222.995z"/>
	<polygon fill-rule="evenodd" clip-rule="evenodd" fill="#00689E" points="588.558,224.198 581.198,224.198 581.198,222.782 
		584.164,222.782 584.164,211.915 581.371,213.309 581.371,211.688 584.396,210.125 585.789,210.125 585.789,222.782 
		588.558,222.782 	"/>
	<path fill-rule="evenodd" clip-rule="evenodd" fill="#00689E" d="M602.016,209.907c1.477,0,2.615,0.627,3.409,1.904
		c0.798,1.271,1.199,3.059,1.199,5.357c0,2.223-0.388,3.992-1.164,5.303c-0.768,1.305-1.921,1.953-3.444,1.953
		c-1.475,0-2.61-0.635-3.411-1.904c-0.802-1.271-1.202-3.053-1.202-5.352c0-2.236,0.387-4.006,1.16-5.311
		C599.343,210.555,600.496,209.907,602.016,209.907z M602.016,222.995c0.979,0,1.701-0.461,2.171-1.387
		c0.473-0.932,0.715-2.416,0.715-4.439c0-2.037-0.242-3.514-0.715-4.432c-0.47-0.934-1.192-1.389-2.171-1.389
		c-0.968,0-1.686,0.469-2.165,1.416c-0.474,0.945-0.712,2.416-0.712,4.404c0,2.018,0.231,3.488,0.701,4.426
		C600.316,222.534,601.041,222.995,602.016,222.995z"/>
	<polygon fill-rule="evenodd" clip-rule="evenodd" fill="#00689E" points="622.827,224.198 615.471,224.198 615.471,222.782 
		618.433,222.782 618.433,211.915 615.638,213.309 615.638,211.688 618.661,210.125 620.062,210.125 620.062,222.782 
		622.827,222.782 	"/>
	<polygon fill-rule="evenodd" clip-rule="evenodd" fill="#00689E" points="559.083,264.809 551.73,264.809 551.73,263.385 
		554.692,263.385 554.692,252.526 551.896,253.92 551.896,252.297 554.921,250.745 556.318,250.745 556.318,263.385 
		559.083,263.385 	"/>
	<path fill-rule="evenodd" clip-rule="evenodd" fill="#00689E" d="M576.696,250.51c1.484,0,2.616,0.635,3.411,1.912
		c0.801,1.27,1.2,3.051,1.2,5.357c0,2.223-0.386,3.99-1.16,5.303c-0.772,1.297-1.922,1.953-3.451,1.953
		c-1.47,0-2.609-0.635-3.41-1.906c-0.801-1.262-1.199-3.057-1.199-5.35c0-2.236,0.388-4.004,1.16-5.303
		C574.028,251.167,575.178,250.51,576.696,250.51z M576.696,263.608c0.98,0,1.706-0.463,2.175-1.383
		c0.477-0.938,0.712-2.422,0.712-4.445c0-2.037-0.235-3.514-0.712-4.432c-0.469-0.926-1.194-1.389-2.175-1.389
		c-0.966,0-1.681,0.469-2.161,1.414c-0.476,0.947-0.711,2.418-0.711,4.406c0,2.01,0.235,3.494,0.7,4.434
		C575.001,263.137,575.724,263.608,576.696,263.608z"/>
	<polygon fill-rule="evenodd" clip-rule="evenodd" fill="#00689E" points="601.669,264.809 594.309,264.809 594.309,263.385 
		597.274,263.385 597.274,252.526 594.479,253.92 594.479,252.297 597.502,250.745 598.901,250.745 598.901,263.385 
		601.669,263.385 	"/>
	<path fill-rule="evenodd" clip-rule="evenodd" fill="#00689E" d="M619.282,250.51c1.481,0,2.613,0.635,3.41,1.912
		c0.794,1.27,1.195,3.051,1.199,5.357c0,2.223-0.391,3.99-1.16,5.303c-0.771,1.297-1.923,1.953-3.449,1.953
		c-1.478,0-2.616-0.635-3.414-1.906c-0.802-1.262-1.198-3.057-1.198-5.35c0-2.236,0.388-4.004,1.16-5.303
		C616.606,251.167,617.763,250.51,619.282,250.51z M619.282,263.608c0.978,0,1.702-0.463,2.171-1.383
		c0.474-0.938,0.708-2.422,0.708-4.445c0-2.037-0.234-3.514-0.708-4.432c-0.469-0.926-1.193-1.389-2.171-1.389
		c-0.97,0-1.688,0.469-2.162,1.414c-0.479,0.947-0.717,2.418-0.717,4.406c0,2.01,0.234,3.494,0.703,4.434
		C617.584,263.137,618.309,263.608,619.282,263.608z"/>
	<path fill-rule="evenodd" clip-rule="evenodd" fill="#00689E" d="M558.414,189.592c1.481,0,2.62,0.643,3.41,1.92
		c0.801,1.264,1.202,3.053,1.202,5.357c0,2.217-0.388,3.99-1.16,5.297c-0.773,1.305-1.927,1.947-3.452,1.947
		c-1.475,0-2.609-0.629-3.41-1.893c-0.802-1.27-1.202-3.059-1.202-5.352c0-2.244,0.39-4.004,1.163-5.309
		C555.745,190.249,556.896,189.592,558.414,189.592z M558.414,202.69c0.979,0,1.702-0.463,2.174-1.387
		c0.471-0.932,0.713-2.418,0.713-4.434c0-2.043-0.242-3.521-0.713-4.439c-0.472-0.924-1.194-1.387-2.174-1.387
		c-0.967,0-1.685,0.469-2.161,1.408c-0.477,0.953-0.711,2.424-0.711,4.418c0,2.002,0.234,3.488,0.704,4.426
		C556.719,202.227,557.443,202.69,558.414,202.69z"/>
	<path fill-rule="evenodd" clip-rule="evenodd" fill="#00689E" d="M581.964,189.592c1.485,0,2.617,0.643,3.411,1.92
		c0.802,1.264,1.201,3.053,1.201,5.357c0,2.217-0.386,3.99-1.159,5.297c-0.773,1.305-1.927,1.947-3.453,1.947
		c-1.47,0-2.609-0.629-3.41-1.893c-0.801-1.27-1.198-3.059-1.198-5.352c0-2.244,0.384-4.004,1.156-5.309
		C579.292,190.249,580.442,189.592,581.964,189.592z M581.964,202.69c0.978,0,1.706-0.463,2.176-1.387
		c0.473-0.932,0.71-2.418,0.71-4.434c0-2.043-0.237-3.521-0.71-4.439c-0.47-0.924-1.198-1.387-2.176-1.387
		c-0.962,0-1.684,0.469-2.16,1.408c-0.477,0.953-0.715,2.424-0.715,4.418c0,2.002,0.234,3.488,0.704,4.426
		C580.273,202.227,580.995,202.69,581.964,202.69z"/>
	<polygon fill-rule="evenodd" clip-rule="evenodd" fill="#00689E" points="608.263,203.893 600.903,203.893 600.903,202.471 
		603.872,202.471 603.872,191.608 601.076,193.004 601.076,191.381 604.1,189.821 605.498,189.821 605.498,202.471 608.263,202.471 
			"/>
	<path fill-rule="evenodd" clip-rule="evenodd" fill="#00689E" d="M627.201,189.592c1.478,0,2.616,0.643,3.411,1.92
		c0.801,1.264,1.202,3.053,1.202,5.357c0,2.217-0.388,3.99-1.16,5.297c-0.777,1.305-1.923,1.947-3.453,1.947
		c-1.474,0-2.609-0.629-3.414-1.893c-0.797-1.27-1.19-3.059-1.19-5.352c0-2.244,0.379-4.004,1.155-5.309
		C624.53,190.249,625.683,189.592,627.201,189.592z M627.201,202.69c0.98,0,1.706-0.463,2.172-1.387
		c0.476-0.932,0.714-2.418,0.714-4.434c0-2.043-0.238-3.521-0.714-4.439c-0.466-0.924-1.191-1.387-2.172-1.387
		c-0.963,0-1.685,0.469-2.16,1.408c-0.477,0.953-0.712,2.424-0.712,4.418c0,2.002,0.235,3.488,0.705,4.426
		C625.506,202.227,626.228,202.69,627.201,202.69z"/>
	<polygon fill-rule="evenodd" clip-rule="evenodd" fill="#00689E" points="583.892,136.569 576.538,136.569 576.538,135.145 
		579.499,135.145 579.499,124.285 576.703,125.68 576.703,124.058 579.728,122.497 581.129,122.497 581.129,135.145 
		583.892,135.145 	"/>
	<path fill-rule="evenodd" clip-rule="evenodd" fill="#00689E" d="M595.158,122.27c1.48,0,2.616,0.635,3.411,1.912
		c0.801,1.271,1.198,3.052,1.198,5.352c0,2.223-0.387,4.004-1.156,5.309c-0.774,1.305-1.928,1.953-3.453,1.953
		c-1.474,0-2.608-0.635-3.41-1.898c-0.801-1.27-1.202-3.065-1.202-5.364c0-2.23,0.387-3.998,1.16-5.297
		C592.487,122.918,593.637,122.27,595.158,122.27z M595.158,135.366c0.98,0,1.703-0.461,2.171-1.387
		c0.474-0.932,0.712-2.41,0.712-4.446c0-2.023-0.238-3.508-0.712-4.427c-0.468-0.925-1.19-1.387-2.171-1.387
		c-0.966,0-1.685,0.47-2.161,1.408c-0.472,0.952-0.715,2.416-0.715,4.405c0,2.022,0.232,3.5,0.705,4.44
		C593.46,134.905,594.186,135.366,595.158,135.366z"/>
	<path fill-rule="evenodd" clip-rule="evenodd" fill="#00689E" d="M611.031,122.27c1.484,0,2.616,0.635,3.411,1.912
		c0.801,1.271,1.202,3.052,1.202,5.352c0,2.223-0.388,4.004-1.16,5.309c-0.773,1.305-1.927,1.953-3.453,1.953
		c-1.474,0-2.608-0.635-3.41-1.898c-0.801-1.27-1.201-3.065-1.201-5.364c0-2.23,0.39-3.998,1.159-5.297
		C608.363,122.918,609.517,122.27,611.031,122.27z M611.031,135.366c0.98,0,1.702-0.461,2.176-1.387
		c0.472-0.932,0.711-2.41,0.711-4.446c0-2.023-0.239-3.508-0.711-4.427c-0.474-0.925-1.195-1.387-2.176-1.387
		c-0.966,0-1.685,0.47-2.16,1.408c-0.477,0.952-0.713,2.416-0.713,4.405c0,2.022,0.232,3.5,0.702,4.44
		C609.332,134.905,610.062,135.366,611.031,135.366z"/>
	<polygon fill-rule="evenodd" clip-rule="evenodd" fill="#00689E" points="629.652,136.569 622.299,136.569 622.299,135.145 
		625.262,135.145 625.262,124.285 622.465,125.68 622.465,124.058 625.488,122.497 626.892,122.497 626.892,135.145 
		629.652,135.145 	"/>
	<path fill-rule="evenodd" clip-rule="evenodd" fill="#00689E" d="M584.284,94.504c1.478,0,2.617,0.642,3.41,1.923
		c0.802,1.267,1.201,3.048,1.201,5.354c0,2.223-0.385,3.993-1.159,5.302c-0.773,1.299-1.923,1.955-3.452,1.955
		c-1.474,0-2.61-0.636-3.411-1.906c-0.8-1.271-1.201-3.059-1.201-5.351c0-2.237,0.388-4.005,1.16-5.31
		C581.611,95.163,582.761,94.504,584.284,94.504z M584.284,107.608c0.974,0,1.698-0.47,2.168-1.385
		c0.477-0.936,0.718-2.417,0.718-4.442c0-2.037-0.241-3.515-0.718-4.439c-0.47-0.919-1.194-1.385-2.168-1.385
		c-0.963,0-1.685,0.473-2.161,1.419c-0.477,0.945-0.715,2.41-0.715,4.405c0,2.009,0.235,3.486,0.701,4.429
		C582.586,107.139,583.315,107.608,584.284,107.608z"/>
	<polygon fill-rule="evenodd" clip-rule="evenodd" fill="#00689E" points="604.804,108.803 597.448,108.803 597.448,107.387 
		600.413,107.387 600.413,96.522 597.616,97.922 597.616,96.292 600.641,94.738 602.039,94.738 602.039,107.387 604.804,107.387 	
		"/>
	<path fill-rule="evenodd" clip-rule="evenodd" fill="#00689E" d="M617.967,94.504c1.478,0,2.616,0.642,3.411,1.923
		c0.797,1.267,1.198,3.048,1.198,5.354c0,2.223-0.387,3.993-1.16,5.302c-0.768,1.299-1.924,1.955-3.449,1.955
		c-1.474,0-2.613-0.636-3.407-1.906c-0.801-1.271-1.205-3.059-1.205-5.351c0-2.237,0.391-4.005,1.159-5.31
		C615.296,95.163,616.445,94.504,617.967,94.504z M617.967,107.608c0.977,0,1.706-0.47,2.175-1.385
		c0.473-0.936,0.708-2.417,0.708-4.442c0-2.037-0.235-3.515-0.708-4.439c-0.469-0.919-1.198-1.385-2.175-1.385
		c-0.963,0-1.688,0.473-2.157,1.419c-0.483,0.945-0.719,2.41-0.719,4.405c0,2.009,0.235,3.486,0.705,4.429
		C616.271,107.139,616.997,107.608,617.967,107.608z"/>
	<path fill-rule="evenodd" clip-rule="evenodd" fill="#00689E" d="M600.651,54.304c1.295,0,2.289,0.561,2.985,1.676
		c0.697,1.113,1.051,2.672,1.051,4.687c0,1.946-0.343,3.495-1.016,4.638c-0.678,1.147-1.685,1.709-3.021,1.709
		c-1.292,0-2.286-0.553-2.986-1.662c-0.701-1.11-1.051-2.672-1.051-4.685c0-1.952,0.34-3.501,1.016-4.64
		C598.314,54.878,599.322,54.304,600.651,54.304z M600.651,65.764c0.856,0,1.487-0.404,1.901-1.214
		c0.414-0.813,0.625-2.109,0.625-3.884c0-1.783-0.211-3.08-0.625-3.875c-0.414-0.812-1.045-1.216-1.901-1.216
		c-0.847,0-1.474,0.414-1.892,1.241c-0.419,0.82-0.626,2.111-0.626,3.85c0,1.768,0.207,3.059,0.622,3.876
		C599.163,65.359,599.798,65.764,600.651,65.764z"/>
	<polygon fill-rule="evenodd" clip-rule="evenodd" fill="#00689E" points="617.246,66.777 610.804,66.777 610.804,65.542 
		613.399,65.542 613.399,56.029 610.956,57.257 610.956,55.829 613.601,54.469 614.821,54.469 614.821,65.542 617.246,65.542 	"/>
	<path fill-rule="evenodd" clip-rule="evenodd" fill="#00689E" d="M626.79,54.304c1.294,0,2.29,0.561,2.987,1.676
		c0.696,1.113,1.042,2.672,1.042,4.687c0,1.946-0.332,3.495-1.008,4.638c-0.677,1.147-1.686,1.709-3.021,1.709
		c-1.288,0-2.284-0.553-2.982-1.662c-0.7-1.11-1.053-2.672-1.053-4.685c0-1.952,0.339-3.501,1.015-4.64
		C624.454,54.878,625.461,54.304,626.79,54.304z M626.79,65.764c0.854,0,1.489-0.404,1.902-1.214
		c0.414-0.813,0.621-2.109,0.621-3.884c0-1.783-0.207-3.08-0.621-3.875c-0.413-0.812-1.049-1.216-1.902-1.216
		c-0.845,0-1.474,0.414-1.889,1.241c-0.417,0.82-0.624,2.111-0.624,3.85c0,1.768,0.2,3.059,0.611,3.876
		C625.31,65.359,625.941,65.764,626.79,65.764z"/>
	<polygon fill-rule="evenodd" clip-rule="evenodd" fill="#00689E" points="597.907,86.954 590.546,86.954 590.546,85.539 
		593.515,85.539 593.515,74.675 590.719,76.071 590.719,74.443 593.742,72.892 595.139,72.892 595.139,85.539 597.907,85.539 	"/>
	<path fill-rule="evenodd" clip-rule="evenodd" fill="#00689E" d="M615.519,72.664c1.479,0,2.617,0.635,3.411,1.91
		c0.797,1.269,1.198,3.049,1.198,5.354c0,2.23-0.387,3.994-1.156,5.303c-0.773,1.305-1.927,1.954-3.453,1.954
		c-1.474,0-2.608-0.635-3.409-1.906c-0.801-1.263-1.202-3.052-1.202-5.351c0-2.237,0.387-4.005,1.16-5.308
		C612.847,73.311,613.997,72.664,615.519,72.664z M615.519,85.756c0.981,0,1.699-0.463,2.168-1.388
		c0.478-0.932,0.719-2.409,0.719-4.439c0-2.037-0.241-3.516-0.719-4.436c-0.469-0.925-1.187-1.381-2.168-1.381
		c-0.966,0-1.684,0.467-2.164,1.415c-0.473,0.945-0.715,2.413-0.715,4.401c0,2.016,0.238,3.493,0.708,4.429
		C613.821,85.293,614.546,85.756,615.519,85.756z"/>
	<path fill="#00689E" d="M638.813,264.932c0,0,0.002-183.875-0.204-211.285c-0.238-31.642-5.613-53.943-15.283-53.645
		c-9.995,0.309-19.029,14.92-34.138,41.806c-12.992,23.119-108.321,223.098-108.321,223.098l64.009,0.025
		c0,0,59.594-214.534,78.438-213.749c12,0.5,8.306,58.19,8.876,109.155l-0.048,104.594H638.813z"/>
	<g>
		<path d="M282.515,226.526c-18.399,4.816-35.798,6.777-57.798,6.777c-46.399,0-83.6-21.758-83.6-66.166
			c0-41.733,38.8-62.598,83.6-62.598c26.199,0,38.799,1.784,52.198,4.638v33.529c-7.6-3.924-21.798-7.135-36.798-7.135
			c-26.6,0-44.2,11.949-44.2,34.6c0,17.121,7.8,32.102,29.2,32.102c3.799,0,8.199,0,11.398-1.07V168.03h45.999V226.526z"/>
		<path d="M301.118,106.68h120.998v29.961h-68.6v17.656h65.6v29.961h-65.6v16.943h70v29.961H301.118V106.68z"/>
	</g>
	<g>
		<path fill="#00689E" stroke="#00689E" d="M116.485,145.674c-3.094,14.742-5.824,27.482-10.738,45.502
			c-2.73,9.828-6.734,24.207-6.734,29.668c0,4.186,1.82,8.008,5.824,8.008c7.28,0,11.648-15.289,12.923-19.656l2.729,0.727
			c-3.64,11.648-7.826,23.479-20.021,23.479c-5.824,0-14.925-3.275-14.925-15.834c0-5.096,1.274-10.375,4.551-23.115
			c6.006-22.205,9.828-36.582,11.466-44.045l-16.381,2.73l-0.546-2.73L116.485,145.674z M105.383,114.369
			c0-5.278,4.187-9.464,9.465-9.464c4.914,0,9.282,4.186,9.282,9.464c0,5.097-4.368,9.282-9.282,9.282
			c-2.549,0-4.915-0.91-6.734-2.729C106.475,119.102,105.383,116.735,105.383,114.369z"/>
	</g>
	<g>
		<path fill="#E52616" stroke="#E52616" stroke-width="3" d="M517.771,118.33c4.025,4.725,7.701,11.9,7.701,20.825
			c0,19.076-15.226,24.676-16.101,25.025c-1.226,0.525-2.625,0.701-3.851,1.051c4.201,0.699,9.101,2.625,12.601,5.074
			c2.625,1.926,11.9,8.227,11.9,24.326c0,26.25-23.626,37.451-47.076,37.451c-16.274,0-24.675-4.727-27.476-6.301
			c-7.525-4.199-14.525-11.375-14.525-20.125c0-9.625,7.701-13.826,14-13.826c1.75,0,6.301,0,11.025,5.602
			c1.226,1.398,2.101,2.799,3.326,4.023c2.799,3.5,6.299,5.076,11.725,5.076c3.85,0,7.875-0.525,11.2-2.275
			c4.55-2.275,6.649-6.301,6.649-10.676c0-1.049-0.174-3.148-1.049-5.6c-1.926-4.549-5.775-7-12.076-7.699
			c-2.1-0.352-4.199-0.352-6.475-0.701c-9.1-1.574-9.275-9.1-9.275-10.674c0-3.15,1.051-6.125,2.975-8.051
			c2.275-2.451,4.9-2.975,7.701-3.326c8.4-1.049,14.175-3.148,14.175-12.773c0-7.701-5.25-12.601-13.126-12.601
			c-4.725,0-8.399,2.099-10.5,4.724c-1.049,1.576-1.924,3.326-2.799,4.9c-4.025,6.477-9.977,6.477-11.551,6.477
			c-7,0-14.176-4.9-14.176-13.65c0-10.851,13.301-28.876,41.477-28.876C501.321,105.729,511.646,110.979,517.771,118.33z"/>
	</g>
</g>
</svg>
