<?xml version="1.0" encoding="utf-8"?>
<!-- Generator: Adobe Illustrator 16.0.4, SVG Export Plug-In . SVG Version: 6.00 Build 0)  -->
<!DOCTYPE svg PUBLIC "-//W3C//DTD SVG 1.1//EN" "http://www.w3.org/Graphics/SVG/1.1/DTD/svg11.dtd">
<svg version="1.1" id="Layer_1" xmlns="http://www.w3.org/2000/svg" xmlns:xlink="http://www.w3.org/1999/xlink" x="0px" y="0px"
	 width="309.028px" height="109.673px" viewBox="0 0 309.028 109.673" enable-background="new 0 0 309.028 109.673"
	 xml:space="preserve">
<path d="M218.567,74.048c0,0.966-0.08,1.824-0.617,2.656c-1.047,1.662-3.676,2.172-5.471,2.172c-4.613,0-7.912-2.467-7.912-7.296
	c0-4.56,3.539-7.321,7.912-7.321c2.281,0,4.316,0.885,5.846,2.574l-2.654,2.334c-0.777-1.047-2.092-1.663-3.379-1.663
	c-2.332,0-3.432,2.012-3.432,4.104c0,2.252,0.992,4.076,3.484,4.076c0.965,0,1.986-0.054,2.172-1.234
	c0.027-0.268,0-0.617,0.027-0.912h-2.734v-3.057h6.758V74.048L218.567,74.048z"/>
<path d="M230.393,67.625c-1.416,0-2.418,0.997-2.496,2.392h4.967C232.811,68.597,231.813,67.625,230.393,67.625L230.393,67.625z
	 M230.735,78.791c-4.439,0-7.121-2.705-7.121-7.145c0-3.994,2.654-7.016,6.754-7.016c4.018,0,6.41,2.68,6.41,6.621
	c0,0.446,0,0.919-0.078,1.393h-8.906c0.104,1.576,1.287,3.021,2.941,3.021c1.34,0,2.496-0.841,3.414-1.733l2.709,2.391
	C235.043,77.976,233.206,78.791,230.735,78.791L230.735,78.791z"/>
<path d="M251.174,78.582v-8.985c0-0.946-0.023-1.577-1.209-1.577c-1.26,0-2.574,1.051-3.467,1.84v8.723h-4.072V64.945h3.941
	l0.053,1.945c1.629-1.367,3.285-2.234,5.438-2.234c1.92,0,3.389,1.077,3.389,3.102v10.824H251.174L251.174,78.582z"/>
<path d="M267.438,67.625c-1.418,0-2.416,0.997-2.496,2.392h4.967C269.856,68.597,268.856,67.625,267.438,67.625L267.438,67.625z
	 M268.7,63.947l-5.439-2.68l2.496-2.576l4.861,3.232L268.7,63.947L268.7,63.947z M267.78,78.791c-4.439,0-7.119-2.705-7.119-7.145
	c0-3.994,2.652-7.016,6.752-7.016c4.02,0,6.41,2.68,6.41,6.621c0,0.446,0,0.919-0.08,1.393h-8.906
	c0.105,1.576,1.287,3.021,2.943,3.021c1.34,0,2.496-0.841,3.416-1.733l2.705,2.391C272.088,77.976,270.25,78.791,267.78,78.791
	L267.78,78.791z"/>
<polygon points="287.063,78.582 282.754,78.582 277.5,64.945 281.809,64.945 284.909,73.589 288.061,64.945 292.186,64.945 
	287.063,78.582 "/>
<path d="M302.565,67.625c-1.42,0-2.418,0.997-2.498,2.392h4.967C304.981,68.597,303.985,67.625,302.565,67.625L302.565,67.625z
	 M302.907,78.791c-4.439,0-7.121-2.705-7.121-7.145c0-3.994,2.654-7.016,6.752-7.016c4.02,0,6.41,2.68,6.41,6.621
	c0,0.446,0,0.919-0.078,1.393h-8.906c0.104,1.576,1.289,3.021,2.943,3.021c1.338,0,2.494-0.841,3.414-1.733l2.707,2.391
	C307.215,77.976,305.375,78.791,302.907,78.791L302.907,78.791z"/>
<path d="M240.749,21.924c0-1.42-0.465-2.748-1.387-3.72c-0.922-0.974-2.295-1.58-4.061-1.58c-3.451,0.007-5.439,2.453-5.447,5.3
	l-0.002,2.96v11.003c-0.025,5.525-2.223,8.667-6.705,8.684c-4.23-0.012-6.607-3.164-6.629-8.684V24.884l0.004-2.976
	c-0.004-2.854-2.424-5.263-5.404-5.265c-2.984,0.002-5.404,2.411-5.408,5.265v2.976V37.3c-0.004,5.341,1.643,9.664,4.678,12.644
	c3.033,2.981,7.441,4.604,12.924,4.604c5.316,0,9.688-1.685,12.723-4.698c3.033-3.01,4.719-7.334,4.719-12.56V24.884L240.749,21.924
	L240.749,21.924z"/>
<path d="M303.36,20.437c-2.971-2.403-6.584-4.122-10.881-4.122c-5.678,0.001-11.258,1.503-14.27,5.962l-0.262,0.435l-0.254-0.428
	c-3.018-4.466-8.594-5.968-14.273-5.968c-4.293-0.001-7.908,1.718-10.879,4.121c-4.275,3.518-5.547,8.388-5.568,16.136v12.235
	c0.004,3.217,2.293,5.847,5.338,5.851c3.045-0.003,5.4-2.542,5.4-5.766V34.829c0.01-5.834,4.652-7.614,7.256-7.624
	c2.768,0.01,7.385,1.789,7.385,7.673v13.886c0.006,3.246,2.375,5.895,5.596,5.894c3.225,0.001,5.594-2.648,5.6-5.894l0.002-13.886
	c0-5.884,4.617-7.664,7.387-7.673c2.6,0.009,7.244,1.789,7.25,7.623v14.063c0,3.224,2.359,5.763,5.4,5.766
	c3.047-0.004,5.338-2.634,5.34-5.851V36.574C308.907,28.825,307.633,23.955,303.36,20.437L303.36,20.437z"/>
<path d="M143.084,55.023c5.155,0,9.139-1.321,11.849-3.502l0,0c2.703-2.176,4.111-5.216,4.111-8.551l0,0
	c0-0.002-0.002-0.008,0-0.013l0,0c0-0.015,0-0.03,0-0.046l0,0c-0.004-6.089-4.292-10.01-11.547-11.314l0,0l-7.628-1.39
	c-2.107-0.423-2.896-1.206-2.896-2.184l0,0c0.001,0,0.001,0,0.001,0l0,0c0-0.007,0-0.011,0-0.014l0,0
	c0-0.447,0.34-0.942,1.162-1.352l0,0c0.815-0.403,2.064-0.682,3.656-0.682l0,0c0.005,0,0.015,0,0.022,0l0,0
	c3.366,0.003,5.865,0.948,7.95,1.847l0,0c0.849,0.357,1.795,0.656,2.775,0.659l0,0l0.004-0.002c1.576,0,2.884-0.519,3.786-1.404l0,0
	c0.902-0.886,1.389-2.125,1.389-3.497l0,0c0.004,0,0-0.003,0.002-0.014l0,0c0-0.007,0-0.014,0-0.021l0,0
	c-0.002-1.806-1.043-3.212-2.899-4.201l0,0c-2.238-1.216-7.307-3.034-13.007-3.038l0,0c-5.427,0-9.397,1.535-12.014,3.796l0,0
	c-2.613,2.258-3.861,5.235-3.861,8.059l0,0c0,0.02,0,0.037,0,0.057l0,0c0.002,5.37,3.526,9.718,11.171,11.166l0,0l7.629,1.321
	c1.126,0.201,1.975,0.507,2.502,0.903l0,0c0.522,0.395,0.76,0.841,0.767,1.493l0,0v0.004c0,0.557-0.393,1.096-1.293,1.539l0,0
	c-0.892,0.431-2.24,0.706-3.912,0.706l0,0c0,0-0.007,0-0.017,0l0,0c-3.746-0.001-6.285-1.013-8.663-2.184l0,0
	c-0.836-0.422-2.008-0.941-3.313-0.944l0,0c-1.469,0.003-2.744,0.481-3.648,1.311l0,0c-0.908,0.827-1.436,2-1.438,3.318l0,0h-0.045
	l0.047,0.007l-0.002,0.014c0.002,1.715,0.834,3.38,2.574,4.477l0,0l0.001,0.001l-0.028,0.06l0.036-0.056
	C131.293,53.2,136.425,55.019,143.084,55.023L143.084,55.023L143.084,55.023z"/>
<path d="M170.11,67.9c-0.213-2.849-1.1-5.783-2.85-7.219c-1.748-1.433-3.314-2.205-5.576-2.501l0,0
	c-0.594-0.073-1.162-0.136-1.754-0.136l0,0c-0.602,0-1.166,0.062-1.766,0.136l0,0c-2.328,0.305-4.225,1.158-5.771,2.624l0,0
	c-1.923,1.845-2.878,4.146-2.885,7.118l0,0c0,0.006,0,5.949,0,7.802l0,0c0,0-0.002,0.015,0,0.015l0,0
	c-0.003,3.618-1.458,7.714-4.229,10.339l0,0c-2.763,2.637-6.249,3.998-10.227,4l0,0c-0.016,0-0.018-0.002-0.03-0.002l0,0
	c-0.019,0-0.024,0-0.046,0.002l0,0c-0.014,0-0.023,0-0.043,0l0,0c-3.981-0.002-7.58-1.229-10.289-3.866l0,0
	c-2.68-2.61-4.562-4.921-4.578-11.495l0,0c0-2.566,0-9.714,0-16.219l0,0c0-6.454,0-12.265,0-12.366l0,0
	c-0.008-9.426-3.359-17.243-10.154-23.673l0,0c-2.789-2.629-5.85-4.695-9.161-6.247l0,0c-4.478-2.099-9.434-3.206-14.908-3.322l0,0
	c-0.37-0.013-0.663-0.044-0.93-0.046l0,0h-0.016h-0.001H84.89h-0.017h-0.009c-0.238,0-0.511,0.032-0.854,0.046l0,0
	c-8.377,0.184-17.793,3.378-23.29,9.335l0,0l-0.706,0.757l-0.696-0.765c-4.922-5.406-13.888-8.819-21.958-9.338l0,0
	c-0.755-0.053-1.491-0.101-2.172-0.1l0,0c-0.869-0.001-1.729,0.047-2.613,0.1l0,0c-8.789,0.536-16.228,3.667-22.418,9.511l0,0
	C3.362,28.819,0.006,36.629,0,46.065l0,0v62.571h20.681v-62.57c0-0.031-0.002-0.051-0.002-0.074l0,0
	c0.003-3.807,1.444-7.134,4.233-9.705l0,0c2.769-2.596,6.247-3.917,10.254-3.921l0,0l0.06-0.004
	c3.877,0.004,7.33,1.364,10.147,4.003l0,0c2.833,2.614,4.319,5.913,4.321,9.634l0,0c0,0.017,0,0.044,0,0.08l0,0v62.132l0.005,0.164
	v0.01v0.318h20.677V46.131c0-0.028,0-0.044,0-0.058l0,0c0.001-3.722,1.487-7.014,4.323-9.635l0,0c2.812-2.641,6.245-4,10.113-4.001
	l0,0c0.034-0.002,0.039-0.002,0.048,0l0,0l0.018,0.001h0.014c0.028-0.003,0.057-0.001,0.072-0.001l0,0
	c3.962,0.001,7.43,1.324,10.191,3.919l0,0c2.73,2.526,4.172,5.765,4.235,9.48l0,0l0.001,0.074l0.008,0.018v30.287
	c0.011,9.436,3.341,17.281,10.074,23.768l0,0c2.792,2.667,5.853,4.756,9.177,6.319l0,0c4.716,2.226,10.521,3.37,16.347,3.37l0,0
	c10.063-0.008,18.367-3.199,25.117-9.618l0,0c6.725-6.418,10.055-14.278,10.068-23.817l0,0c-0.002-0.008-0.004-0.016-0.002-0.024
	l0,0C170.18,76.21,170.202,69.156,170.11,67.9L170.11,67.9"/>
<path d="M172.67,12.609c0.906,0.772,2.162,1.194,3.594,1.169c0.658-0.012,1.359-0.149,2.027-0.393
	c0.764-0.285,1.531-0.565,2.287-0.847c2.568-0.947,6.488-2.477,8.971-3.478c1.93-0.694,3.199-2.436,3.162-4.419
	c-0.051-2.664-2.338-4.683-5.148-4.641c-0.635,0.011-1.248,0.139-1.951,0.395c-1.318,0.475-10.09,4.245-11.545,4.873
	c-1.818,0.789-2.91,2.326-2.871,4.149C171.215,10.714,171.76,11.839,172.67,12.609L172.67,12.609z"/>
<path d="M174.151,31.651l0.02-0.096c0.711-3.418,3.625-5.729,7.6-5.807c0.053-0.001,0.104-0.003,0.16-0.003
	c3.98-0.001,7.029,2.22,7.549,5.549l0.014,0.09L174.151,31.651L174.151,31.651z M200.204,34.937
	c-0.082-4.568-1.545-9.148-4.568-12.572c-3.02-3.427-7.609-5.667-13.801-5.557c-6.91,0.117-11.527,2.739-14.348,6.382
	c-2.828,3.644-3.871,8.264-3.801,12.399c0.131,7.951,3.109,12.804,7.021,15.589c3.91,2.785,8.689,3.523,12.465,3.458h0.006
	c4.82-0.084,8.953-1.223,12.275-3.399c1.59-1.025,2.506-2.542,2.473-4.223c-0.045-2.52-2.184-4.37-4.865-4.32
	c-1.266,0.023-2.273,0.483-2.895,0.815c-0.156,0.087-0.307,0.172-0.451,0.254c-1.361,0.778-3.258,1.726-6.92,1.797
	c-4.846,0.084-7.842-2.844-8.328-5.569l20.797-0.363C197.698,39.583,200.247,37.842,200.204,34.937L200.204,34.937z"/>
</svg>
