<?xml version="1.0" encoding="utf-8"?>
<!-- Generator: Adobe Illustrator 16.0.4, SVG Export Plug-In . SVG Version: 6.00 Build 0)  -->
<!DOCTYPE svg PUBLIC "-//W3C//DTD SVG 1.1//EN" "http://www.w3.org/Graphics/SVG/1.1/DTD/svg11.dtd">
<svg version="1.1" id="Layer_1" xmlns="http://www.w3.org/2000/svg" xmlns:xlink="http://www.w3.org/1999/xlink" x="0px" y="0px"
	 width="350.266px" height="94.39px" viewBox="360.21 723.322 350.266 94.39" enable-background="new 360.21 723.322 350.266 94.39"
	 xml:space="preserve">
<g id="Plan_x0020_1">
	<g id="_1072564288">
		<path fill="#E31E24" stroke="#2B2A29" d="M360.454,724.422c8.561,8.362,92.269,92.58,92.269,92.58l7.879-7.994l-24.689-24.689
			l60.293-60.095l-15.732-0.396l-52.752,52.752l-20.495-20.296l32.229-32.031h-15.334l-24.095,24.095l-23.896-23.896h-15.76
			L360.454,724.422z"/>
		<path fill="#1F1B20" d="M507.402,738.34l4.109-0.396c0.256,1.389,0.738,2.381,1.502,3.033c0.766,0.651,1.787,0.964,3.062,0.964
			c1.361,0,2.381-0.284,3.061-0.851c0.682-0.567,1.021-1.247,1.021-2.013c0-0.51-0.143-0.907-0.426-1.275
			c-0.283-0.341-0.793-0.652-1.502-0.907c-0.482-0.17-1.615-0.482-3.373-0.907c-2.268-0.566-3.826-1.247-4.734-2.069
			c-1.275-1.162-1.928-2.551-1.928-4.224c0-1.077,0.312-2.069,0.908-3.005c0.594-0.936,1.473-1.644,2.607-2.126
			c1.133-0.481,2.494-0.736,4.109-0.736c2.609,0,4.592,0.566,5.896,1.729c1.332,1.162,2.014,2.722,2.098,4.649l-4.223,0.142
			c-0.17-1.077-0.568-1.843-1.162-2.324c-0.596-0.482-1.475-0.709-2.666-0.709c-1.219,0-2.182,0.255-2.863,0.766
			c-0.453,0.34-0.68,0.765-0.68,1.304c0,0.51,0.199,0.907,0.623,1.275c0.539,0.453,1.814,0.907,3.885,1.417
			c2.041,0.482,3.57,0.992,4.535,1.503c0.992,0.51,1.758,1.219,2.295,2.126c0.568,0.907,0.822,2.013,0.822,3.316
			c0,1.19-0.34,2.324-0.992,3.373c-0.68,1.049-1.615,1.814-2.834,2.324c-1.219,0.511-2.75,0.766-4.564,0.766
			c-2.635,0-4.676-0.595-6.094-1.843c-1.418-1.219-2.268-3.004-2.523-5.329L507.402,738.34z"/>
		<polygon id="_x31_" fill="#1F1B20" points="530.873,745.115 525.941,724.195 530.306,724.195 533.423,738.567 537.222,724.195 
			542.267,724.195 545.925,738.822 549.099,724.195 553.351,724.195 548.306,745.115 543.798,745.115 539.66,729.496 
			535.521,745.115 		"/>
		<polygon id="_x32_" fill="#1F1B20" points="555.421,745.115 555.421,724.195 559.644,724.195 559.644,745.115 		"/>
		<path id="_x33_" fill="#1F1B20" d="M562.564,738.34l4.109-0.396c0.256,1.389,0.738,2.381,1.504,3.033
			c0.764,0.651,1.785,0.964,3.061,0.964c1.361,0,2.381-0.284,3.061-0.851c0.682-0.567,1.021-1.247,1.021-2.013
			c0-0.51-0.143-0.907-0.426-1.275c-0.283-0.341-0.793-0.652-1.502-0.907c-0.482-0.17-1.615-0.482-3.373-0.907
			c-2.268-0.566-3.826-1.247-4.734-2.069c-1.275-1.162-1.928-2.551-1.928-4.224c0-1.077,0.312-2.069,0.908-3.005
			c0.594-0.936,1.473-1.644,2.607-2.126c1.133-0.481,2.494-0.736,4.109-0.736c2.609,0,4.594,0.566,5.896,1.729
			c1.332,1.162,2.014,2.722,2.098,4.649l-4.223,0.142c-0.17-1.077-0.568-1.843-1.162-2.324c-0.596-0.482-1.475-0.709-2.666-0.709
			c-1.219,0-2.182,0.255-2.863,0.766c-0.453,0.34-0.68,0.765-0.68,1.304c0,0.51,0.199,0.907,0.623,1.275
			c0.539,0.453,1.814,0.907,3.885,1.417c2.041,0.482,3.57,0.992,4.535,1.503c0.992,0.51,1.758,1.219,2.297,2.126
			c0.566,0.907,0.82,2.013,0.82,3.316c0,1.19-0.34,2.324-0.992,3.373c-0.68,1.049-1.615,1.814-2.834,2.324
			c-1.219,0.511-2.75,0.766-4.564,0.766c-2.635,0-4.676-0.595-6.094-1.843c-1.418-1.219-2.268-3.004-2.523-5.329L562.564,738.34z"/>
		<path id="_x34_" fill="#1F1B20" d="M582.066,738.34l4.111-0.396c0.254,1.389,0.736,2.381,1.502,3.033
			c0.766,0.651,1.785,0.964,3.061,0.964c1.361,0,2.381-0.284,3.062-0.851c0.68-0.567,1.02-1.247,1.02-2.013
			c0-0.51-0.141-0.907-0.426-1.275c-0.283-0.341-0.793-0.652-1.502-0.907c-0.482-0.17-1.615-0.482-3.373-0.907
			c-2.268-0.566-3.826-1.247-4.734-2.069c-1.275-1.162-1.928-2.551-1.928-4.224c0-1.077,0.312-2.069,0.908-3.005
			s1.475-1.644,2.607-2.126c1.135-0.481,2.494-0.736,4.111-0.736c2.607,0,4.592,0.566,5.895,1.729
			c1.332,1.162,2.014,2.722,2.098,4.649l-4.223,0.142c-0.17-1.077-0.566-1.843-1.162-2.324c-0.596-0.482-1.475-0.709-2.664-0.709
			c-1.221,0-2.184,0.255-2.863,0.766c-0.455,0.34-0.682,0.765-0.682,1.304c0,0.51,0.199,0.907,0.625,1.275
			c0.537,0.453,1.814,0.907,3.883,1.417c2.041,0.482,3.572,0.992,4.535,1.503c0.992,0.51,1.758,1.219,2.297,2.126
			c0.566,0.907,0.822,2.013,0.822,3.316c0,1.19-0.342,2.324-0.992,3.373c-0.682,1.049-1.617,1.814-2.836,2.324
			c-1.219,0.511-2.748,0.766-4.562,0.766c-2.637,0-4.678-0.595-6.096-1.843c-1.416-1.219-2.268-3.004-2.521-5.329L582.066,738.34z"
			/>
		<path fill="#1F1B20" d="M507.402,809.802l4.139-0.426c0.254,1.39,0.736,2.41,1.502,3.062c0.766,0.652,1.785,0.964,3.061,0.964
			c1.361,0,2.383-0.283,3.09-0.879c0.682-0.566,1.049-1.247,1.049-2.041c0-0.51-0.141-0.935-0.424-1.275
			c-0.283-0.34-0.795-0.651-1.531-0.907c-0.482-0.17-1.615-0.481-3.402-0.936c-2.268-0.566-3.854-1.275-4.789-2.098
			c-1.305-1.162-1.928-2.579-1.928-4.252c0-1.076,0.311-2.098,0.906-3.032c0.596-0.936,1.475-1.645,2.637-2.126
			c1.133-0.482,2.523-0.737,4.139-0.737c2.637,0,4.621,0.595,5.953,1.758c1.332,1.162,2.041,2.721,2.098,4.677l-4.281,0.142
			c-0.17-1.077-0.566-1.871-1.162-2.353c-0.596-0.482-1.475-0.709-2.664-0.709c-1.219,0-2.184,0.256-2.893,0.766
			c-0.453,0.34-0.68,0.766-0.68,1.304c0,0.511,0.199,0.936,0.623,1.275c0.539,0.454,1.844,0.936,3.912,1.418
			c2.07,0.481,3.6,0.992,4.564,1.502c0.992,0.539,1.758,1.247,2.324,2.154s0.85,2.013,0.85,3.345c0,1.219-0.34,2.354-0.992,3.402
			c-0.68,1.049-1.615,1.842-2.834,2.353c-1.219,0.51-2.75,0.765-4.592,0.765c-2.664,0-4.705-0.623-6.123-1.842
			s-2.268-3.005-2.551-5.357V809.802z"/>
		<path id="_x31__1_" fill="#1F1B20" d="M527.273,806.201c0-2.154,0.311-3.939,0.963-5.414c0.482-1.077,1.135-2.041,1.957-2.891
			c0.82-0.851,1.729-1.475,2.721-1.899c1.305-0.567,2.834-0.822,4.535-0.822c3.119,0,5.584,0.964,7.455,2.892s2.807,4.62,2.807,8.05
			c0,3.402-0.936,6.066-2.777,7.994c-1.844,1.928-4.338,2.892-7.428,2.892c-3.146,0-5.641-0.964-7.482-2.863
			c-1.844-1.899-2.779-4.563-2.779-7.909L527.273,806.201z M531.666,806.06c0,2.382,0.568,4.195,1.645,5.442
			c1.105,1.22,2.494,1.843,4.195,1.843s3.09-0.623,4.195-1.843c1.078-1.219,1.645-3.061,1.645-5.499
			c0-2.409-0.539-4.224-1.588-5.414s-2.467-1.786-4.223-1.786c-1.758,0-3.176,0.596-4.252,1.814
			C532.205,801.836,531.666,803.65,531.666,806.06z"/>
		<path id="_x32__1_" fill="#1F1B20" d="M564.519,808.838l4.111,1.275c-0.625,2.324-1.701,4.054-3.146,5.159
			c-1.475,1.134-3.346,1.701-5.584,1.701c-2.807,0-5.104-0.964-6.918-2.863c-1.785-1.899-2.691-4.535-2.691-7.853
			c0-3.515,0.906-6.235,2.721-8.163c1.814-1.956,4.195-2.92,7.143-2.92c2.58,0,4.678,0.766,6.293,2.296
			c0.965,0.907,1.674,2.211,2.154,3.884l-4.195,0.992c-0.254-1.077-0.766-1.956-1.559-2.58c-0.793-0.623-1.758-0.936-2.891-0.936
			c-1.561,0-2.836,0.567-3.799,1.673c-0.965,1.105-1.475,2.92-1.475,5.442c0,2.665,0.482,4.563,1.445,5.698
			c0.965,1.134,2.211,1.7,3.742,1.7c1.135,0,2.098-0.368,2.92-1.077s1.389-1.843,1.758-3.401L564.519,808.838z"/>
		<polygon id="_x33__1_" fill="#1F1B20" points="572.144,816.604 572.144,795.543 576.396,795.543 576.396,816.604 		"/>
		<polygon id="_x34__1_" fill="#1F1B20" points="580.451,816.604 580.451,795.543 596.041,795.543 596.041,799.115 584.73,799.115 
			584.73,803.792 595.248,803.792 595.248,807.336 584.73,807.336 584.73,813.062 596.466,813.062 596.466,816.604 		"/>
		<polygon id="_x35_" fill="#1F1B20" points="604.828,816.604 604.828,799.115 598.591,799.115 598.591,795.543 615.289,795.543 
			615.289,799.115 609.08,799.115 609.08,816.604 		"/>
		<polygon id="_x36_" fill="#1F1B20" points="623.593,816.604 623.593,807.761 615.855,795.543 620.843,795.543 625.833,803.905 
			630.681,795.543 635.583,795.543 627.845,807.789 627.845,816.604 		"/>
		<path fill="#1F1B20" d="M507.402,774.057l4.109-0.396c0.256,1.389,0.738,2.381,1.502,3.033c0.766,0.651,1.787,0.963,3.062,0.963
			c1.361,0,2.381-0.283,3.061-0.85c0.682-0.567,1.021-1.248,1.021-2.013c0-0.511-0.143-0.907-0.426-1.275
			c-0.283-0.341-0.793-0.652-1.502-0.907c-0.482-0.17-1.615-0.482-3.373-0.907c-2.268-0.567-3.826-1.247-4.734-2.069
			c-1.275-1.162-1.928-2.552-1.928-4.224c0-1.077,0.312-2.069,0.908-3.005c0.594-0.936,1.473-1.645,2.607-2.126
			c1.133-0.481,2.494-0.737,4.109-0.737c2.609,0,4.592,0.567,5.896,1.729c1.332,1.162,2.014,2.722,2.098,4.648l-4.223,0.142
			c-0.17-1.076-0.568-1.842-1.162-2.324c-0.596-0.481-1.475-0.708-2.666-0.708c-1.219,0-2.182,0.255-2.863,0.765
			c-0.453,0.341-0.68,0.766-0.68,1.305c0,0.51,0.199,0.906,0.623,1.275c0.539,0.453,1.814,0.907,3.885,1.417
			c2.041,0.482,3.57,0.992,4.535,1.503c0.992,0.51,1.758,1.219,2.295,2.126c0.568,0.906,0.822,2.012,0.822,3.316
			c0,1.19-0.34,2.324-0.992,3.373c-0.68,1.049-1.615,1.814-2.834,2.324c-1.219,0.511-2.75,0.766-4.564,0.766
			c-2.635,0-4.676-0.596-6.094-1.843c-1.418-1.219-2.268-3.005-2.523-5.329L507.402,774.057z"/>
		<polygon id="_x31__2_" fill="#1F1B20" points="533.48,780.831 533.48,772.044 525.828,759.912 530.759,759.912 535.72,768.189 
			540.539,759.912 545.386,759.912 537.732,772.072 537.732,780.831 		"/>
		<path id="_x32__2_" fill="#1F1B20" d="M546.378,774.057l4.109-0.396c0.256,1.389,0.738,2.381,1.502,3.033
			c0.766,0.651,1.787,0.963,3.062,0.963c1.359,0,2.381-0.283,3.061-0.85c0.682-0.567,1.021-1.248,1.021-2.013
			c0-0.511-0.143-0.907-0.426-1.275c-0.283-0.341-0.793-0.652-1.502-0.907c-0.482-0.17-1.615-0.482-3.373-0.907
			c-2.268-0.567-3.828-1.247-4.734-2.069c-1.275-1.162-1.928-2.552-1.928-4.224c0-1.077,0.312-2.069,0.908-3.005
			c0.594-0.936,1.473-1.645,2.607-2.126c1.133-0.481,2.494-0.737,4.109-0.737c2.607,0,4.592,0.567,5.896,1.729
			c1.332,1.162,2.012,2.722,2.098,4.648l-4.223,0.142c-0.172-1.076-0.568-1.842-1.164-2.324c-0.594-0.481-1.473-0.708-2.664-0.708
			c-1.219,0-2.182,0.255-2.863,0.765c-0.453,0.341-0.68,0.766-0.68,1.305c0,0.51,0.199,0.906,0.623,1.275
			c0.539,0.453,1.814,0.907,3.885,1.417c2.041,0.482,3.57,0.992,4.535,1.503c0.992,0.51,1.758,1.219,2.295,2.126
			c0.568,0.906,0.822,2.012,0.822,3.316c0,1.19-0.34,2.324-0.992,3.373c-0.68,1.049-1.615,1.814-2.834,2.324
			c-1.219,0.511-2.75,0.766-4.564,0.766c-2.635,0-4.676-0.596-6.094-1.843c-1.418-1.219-2.268-3.005-2.523-5.329L546.378,774.057z"
			/>
		<polygon id="_x33__2_" fill="#1F1B20" points="571.664,780.831 571.664,763.455 565.484,763.455 565.484,759.912 582.066,759.912 
			582.066,763.455 575.886,763.455 575.886,780.831 		"/>
		<polygon id="_x34__2_" fill="#1F1B20" points="584.816,780.831 584.816,759.912 600.292,759.912 600.292,763.455 589.039,763.455 
			589.039,768.104 599.5,768.104 599.5,771.619 589.039,771.619 589.039,777.288 600.689,777.288 600.689,780.831 		"/>
		<polygon id="_x35__1_" fill="#1F1B20" points="604.234,780.831 604.234,759.912 610.583,759.912 614.324,774.17 618.009,759.912 
			624.388,759.912 624.388,780.831 620.476,780.831 620.447,764.362 616.337,780.831 612.255,780.831 608.144,764.362 
			608.144,780.831 		"/>
		<path id="_x36__1_" fill="#1F1B20" d="M647.46,780.831h-4.562l-1.814-4.762h-8.391l-1.729,4.762h-4.479l8.105-20.919h4.48
			L647.46,780.831z M639.722,772.526l-2.92-7.739l-2.834,7.739h5.727H639.722z"/>
		<polygon id="_x37_" fill="#1F1B20" points="652.251,780.831 652.251,763.455 646.044,763.455 646.044,759.912 662.656,759.912 
			662.656,763.455 656.476,763.455 656.476,780.831 		"/>
		<polygon id="_x38_" fill="#1F1B20" points="665.234,780.831 665.234,759.912 669.486,759.912 669.486,780.831 		"/>
		<path id="_x39_" fill="#1F1B20" d="M686.892,773.121l4.082,1.247c-0.625,2.296-1.674,4.025-3.146,5.131
			c-1.475,1.105-3.318,1.673-5.557,1.673c-2.777,0-5.074-0.936-6.859-2.835c-1.787-1.899-2.693-4.507-2.693-7.795
			c0-3.487,0.906-6.18,2.693-8.107c1.785-1.928,4.166-2.892,7.086-2.892c2.551,0,4.648,0.766,6.236,2.268
			c0.963,0.907,1.672,2.184,2.154,3.855l-4.166,0.992c-0.256-1.077-0.766-1.928-1.561-2.579c-0.793-0.624-1.729-0.936-2.863-0.936
			c-1.559,0-2.805,0.566-3.77,1.672c-0.963,1.105-1.445,2.92-1.445,5.414c0,2.637,0.482,4.536,1.418,5.642
			c0.963,1.134,2.182,1.672,3.713,1.672c1.133,0,2.098-0.368,2.891-1.077c0.822-0.708,1.389-1.842,1.73-3.373L686.892,773.121z"/>
		<path id="_x31_0" fill="#1F1B20" d="M693.496,774.057l4.111-0.396c0.254,1.389,0.736,2.381,1.502,3.033
			c0.766,0.651,1.785,0.963,3.061,0.963c1.361,0,2.381-0.283,3.062-0.85c0.68-0.567,1.02-1.248,1.02-2.013
			c0-0.511-0.141-0.907-0.424-1.275c-0.285-0.341-0.795-0.652-1.504-0.907c-0.48-0.17-1.615-0.482-3.373-0.907
			c-2.268-0.567-3.826-1.247-4.732-2.069c-1.277-1.162-1.928-2.552-1.928-4.224c0-1.077,0.311-2.069,0.906-3.005
			s1.475-1.645,2.607-2.126c1.135-0.481,2.494-0.737,4.111-0.737c2.607,0,4.592,0.567,5.895,1.729
			c1.334,1.162,2.014,2.722,2.098,4.648l-4.223,0.142c-0.17-1.076-0.566-1.842-1.162-2.324c-0.596-0.481-1.475-0.708-2.664-0.708
			c-1.219,0-2.184,0.255-2.863,0.765c-0.453,0.341-0.682,0.766-0.682,1.305c0,0.51,0.199,0.906,0.625,1.275
			c0.539,0.453,1.814,0.907,3.883,1.417c2.041,0.482,3.572,0.992,4.535,1.503c0.992,0.51,1.758,1.219,2.297,2.126
			c0.566,0.906,0.822,2.012,0.822,3.316c0,1.19-0.34,2.324-0.992,3.373c-0.682,1.049-1.615,1.814-2.836,2.324
			c-1.219,0.511-2.748,0.766-4.562,0.766c-2.637,0-4.678-0.596-6.096-1.843c-1.416-1.219-2.268-3.005-2.521-5.329L693.496,774.057z"
			/>
	</g>
</g>
</svg>
