<?xml version="1.0" encoding="utf-8"?>
<!-- Generator: Adobe Illustrator 16.0.4, SVG Export Plug-In . SVG Version: 6.00 Build 0)  -->
<!DOCTYPE svg PUBLIC "-//W3C//DTD SVG 1.1//EN" "http://www.w3.org/Graphics/SVG/1.1/DTD/svg11.dtd">
<svg version="1.1" id="LOGO_UNI" xmlns="http://www.w3.org/2000/svg" xmlns:xlink="http://www.w3.org/1999/xlink" x="0px" y="0px"
	 width="315.283px" height="113.761px" viewBox="160.718 640.535 315.283 113.761"
	 enable-background="new 160.718 640.535 315.283 113.761" xml:space="preserve">
<g>
	<path fill="#8C8C8C" d="M195.558,674.438l1.706,2.206l1.252-0.969l-2.779-3.592l-0.981,0.758c0.391,0.604-0.169,1.334-0.858,1.852
		l0.499,0.646L195.558,674.438z"/>
	<path fill="#8C8C8C" d="M200.087,672.365c0.086-0.352,0.335-0.56,0.711-0.753c0.549-0.281,1-0.17,1.203,0.226
		c0.202,0.395-0.058,0.85-0.573,1.114c-0.399,0.205-0.965,0.262-1.137-0.055l-1.33,0.684c0.575,0.929,1.688,0.781,2.876,0.172
		c1.269-0.651,1.982-1.647,1.471-2.646c-0.433-0.841-1.389-0.95-2.508-0.376c-0.414,0.213-0.742,0.499-0.916,0.837l-0.016,0.008
		l-0.175-0.841l2.418-1.241l-0.429-0.835l-3.443,1.769l0.641,2.558L200.087,672.365z"/>
	<path fill="#8C8C8C" d="M228.933,670.969c-0.416-0.21-0.841-0.309-1.216-0.249l-0.016-0.008l0.578-0.636l2.426,1.226l0.423-0.837
		l-3.455-1.745l-1.691,2.021l1.209,0.611c0.335-0.138,0.649-0.06,1.026,0.131c0.551,0.278,0.727,0.711,0.526,1.105
		c-0.2,0.396-0.722,0.452-1.24,0.19c-0.399-0.202-0.777-0.627-0.624-0.95l-1.334-0.675c-0.412,1.012,0.359,1.824,1.554,2.428
		c1.271,0.644,2.498,0.636,3.004-0.364C230.529,672.375,230.056,671.536,228.933,670.969z"/>
	<path fill="#8C8C8C" d="M234.434,672.706c-1.01-0.779-2.266-0.909-2.859-0.143c-0.542,0.701-0.283,1.732,0.678,2.476
		c0.417,0.323,0.954,0.563,1.385,0.452l0.014,0.012c-0.396,0.452-0.963,0.714-1.604,0.219c-0.146-0.112-0.278-0.257-0.354-0.405
		c-0.079-0.143-0.101-0.301-0.042-0.436l-1.106-0.855c-0.347,0.795,0.051,1.604,0.935,2.287c1.545,1.193,2.812,0.748,3.613-0.287
		C235.838,675.06,235.846,673.799,234.434,672.706z M234.276,674.636c-0.251,0.324-0.76,0.351-1.262-0.037
		c-0.487-0.377-0.576-0.865-0.317-1.2c0.231-0.3,0.761-0.31,1.207,0.035C234.413,673.826,234.523,674.315,234.276,674.636z"/>
	<path fill="#8C8C8C" d="M184.272,691.33c0.797,0.265,1.382-0.505,1.847-1.307c0.467-0.809,0.814-1.648,1.155-1.536
		c0.29,0.097,0.239,0.543,0.128,0.877c-0.159,0.478-0.458,0.943-0.852,0.784l-0.515,1.553c0.999,0.322,1.821-0.729,2.214-1.916
		c0.372-1.12,0.429-2.555-0.536-2.874c-0.811-0.269-1.392,0.53-1.853,1.321c-0.465,0.801-0.82,1.629-1.21,1.498
		c-0.328-0.108-0.291-0.634-0.135-1.102c0.217-0.658,0.528-1.037,1.059-0.898l0.515-1.554c-1.135-0.365-1.98,0.696-2.436,2.064
		C183.221,689.553,183.153,690.959,184.272,691.33z"/>
	<path fill="#8C8C8C" d="M183.761,699.157l0.125-1.631c-0.529-0.103-0.82-0.565-0.762-1.33c0.082-1.052,0.803-1.401,1.491-1.349
		c0.688,0.054,1.346,0.51,1.265,1.562c-0.052,0.686-0.337,1.157-0.812,1.208l-0.126,1.631c1.121,0.045,1.871-1.371,1.974-2.725
		c0.147-1.893-0.831-3.203-2.175-3.307c-1.344-0.104-2.512,1.041-2.658,2.936C181.961,697.74,182.571,698.979,183.761,699.157z"/>
	<polygon fill="#8C8C8C" points="187.342,704.41 185.671,704.696 185.306,702.573 186.976,702.286 186.698,700.674 182.113,701.464 
		182.391,703.076 184.279,702.75 184.645,704.875 182.756,705.2 183.035,706.812 187.619,706.022 	"/>
	<path fill="#8C8C8C" d="M189.278,709.961c-0.811-1.807-2.248-2.387-3.479-1.834c-1.229,0.553-1.754,2.012-0.943,3.817
		c0.81,1.807,2.247,2.384,3.478,1.833S190.087,711.767,189.278,709.961z M187.663,712.284c-0.63,0.282-1.425,0.196-1.857-0.768
		c-0.433-0.963,0.033-1.615,0.664-1.897c0.63-0.28,1.426-0.194,1.857,0.769S188.294,712.003,187.663,712.284z"/>
	<polygon fill="#8C8C8C" points="192.165,715.106 191.174,713.804 187.473,716.622 190.238,720.256 191.067,719.625 
		189.293,717.294 	"/>
	<path fill="#8C8C8C" d="M191.092,721.26l1.275,1.095l0.843-0.375l1.662,1.428l-0.25,0.884l1.294,1.112l1.249-5.06l-1.261-1.083
		L191.092,721.26z M195.164,722.472l-1.081-0.93l1.603-0.771l0.014,0.011L195.164,722.472z"/>
	<path fill="#8C8C8C" d="M208.868,726.896c0.646,0.134,1.114,0.477,1.085,0.877l1.603,0.332c0.09-1.173-1.166-1.959-2.441-2.224
		c-1.86-0.387-3.285,0.418-3.559,1.737c-0.273,1.32,0.714,2.623,2.573,3.01c0.569,0.117,1.324,0.114,1.837-0.237l-0.008,0.517
		l1.033,0.215l0.519-2.494l-2.585-0.535l-0.183,0.88l1.12,0.231c-0.172,0.396-0.764,0.562-1.556,0.396
		c-1.033-0.214-1.29-0.973-1.149-1.648C207.298,727.275,207.834,726.681,208.868,726.896z"/>
	<polygon fill="#8C8C8C" points="215.613,730.165 215.568,729.28 218.643,729.125 218.595,728.187 215.521,728.344 215.479,727.53 
		218.844,727.358 218.794,726.389 213.796,726.643 214.032,731.289 219.119,731.031 219.066,729.99 	"/>
	<polygon fill="#8C8C8C" points="224.247,724.947 225.1,727.685 225.083,727.689 222.148,725.601 220.543,726.101 221.927,730.544 
		223.396,730.086 222.534,727.316 222.551,727.311 225.496,729.431 227.101,728.931 225.717,724.489 	"/>
	<polygon fill="#8C8C8C" points="230.708,725.888 230.243,725.135 232.861,723.516 232.369,722.719 229.749,724.337 
		229.321,723.643 232.188,721.872 231.677,721.047 227.419,723.677 229.864,727.635 234.197,724.959 233.649,724.071 	"/>
	<polygon fill="#8C8C8C" points="235.57,717.382 237.159,720.692 237.147,720.705 233.823,719.142 232.622,720.354 237.318,722.225 
		238.644,720.889 236.773,716.171 	"/>
	<polygon fill="#8C8C8C" points="241.451,715.598 240.693,715.138 242.29,712.507 241.487,712.02 239.891,714.651 239.195,714.229 
		240.941,711.349 240.111,710.845 237.516,715.125 241.494,717.537 244.135,713.182 243.244,712.642 	"/>
	<polygon fill="#8C8C8C" points="241.977,705.506 244.722,706.332 244.717,706.349 241.342,707.61 240.857,709.219 245.312,710.562 
		245.757,709.089 242.98,708.252 242.985,708.234 246.391,706.981 246.875,705.373 242.421,704.031 	"/>
	<path fill="#8C8C8C" d="M246.112,697.186c-0.84-0.037-1.193,0.862-1.422,1.76c-0.229,0.905-0.334,1.809-0.692,1.792
		c-0.306-0.014-0.377-0.457-0.361-0.809c0.021-0.501,0.182-1.031,0.604-0.985l0.073-1.635c-1.049-0.038-1.553,1.199-1.609,2.447
		c-0.052,1.178,0.284,2.573,1.299,2.618c0.854,0.038,1.194-0.889,1.423-1.775c0.229-0.897,0.348-1.79,0.758-1.772
		c0.345,0.017,0.452,0.531,0.431,1.023c-0.031,0.694-0.227,1.144-0.775,1.154l-0.071,1.635c1.19,0.044,1.717-1.21,1.78-2.65
		C247.608,698.607,247.291,697.238,246.112,697.186z"/>
	
		<rect x="242.528" y="693.296" transform="matrix(0.9898 -0.1427 0.1427 0.9898 -96.5535 42.0492)" fill="#8C8C8C" width="4.653" height="1.636"/>
	<path fill="#8C8C8C" d="M243.393,691.396c0.807-0.277,0.785-1.265,0.673-2.175c-0.116-0.918-0.333-1.792,0.056-1.926
		c0.326-0.112,0.615,0.327,0.775,0.794c0.226,0.657,0.208,1.146-0.298,1.357l0.53,1.548c1.125-0.396,1.155-1.754,0.688-3.119
		c-0.448-1.306-1.245-2.464-2.36-2.081c-0.795,0.271-0.794,1.238-0.679,2.157c0.118,0.928,0.351,1.806,0.012,1.921
		c-0.29,0.1-0.519-0.286-0.633-0.618c-0.163-0.476-0.208-1.026,0.202-1.141l-0.532-1.548c-0.989,0.349-1.006,1.686-0.601,2.866
		C241.607,690.549,242.431,691.726,243.393,691.396z"/>
	<circle fill="#8C8C8C" cx="200.984" cy="726.012" r="1.11"/>
	<circle fill="#8C8C8C" cx="190.119" cy="680.363" r="1.11"/>
	<circle fill="#8C8C8C" cx="239.125" cy="680.363" r="1.11"/>
	<polygon fill="#8C8C8C" points="217.453,667.603 216.552,669.015 218.758,669.015 218.758,668.331 217.889,668.336 218.37,667.616 
		217.889,666.875 218.742,666.869 218.742,666.194 216.552,666.194 	"/>
	<polygon fill="#8C8C8C" points="212.686,668.336 212.142,668.342 212.142,666.869 212.647,666.875 212.647,666.194 
		210.833,666.194 210.833,666.875 211.337,666.869 211.337,668.342 210.8,668.336 210.8,669.015 212.686,669.015 	"/>
	<polygon fill="#8C8C8C" points="215.254,667.188 214.105,667.188 214.11,666.185 213.269,666.185 213.269,669.015 214.11,669.015 
		214.105,667.89 215.254,667.89 215.254,669.015 216.094,669.015 216.094,666.185 215.254,666.185 	"/>
	<path fill="#8C8C8C" d="M214.326,664.511c0-0.213,0.153-0.349,0.376-0.349c0.2,0,0.351,0.152,0.351,0.349l0.011,1h1.568v-0.84
		h-0.962l-0.004-0.216c-0.006-0.603-0.284-1.088-0.97-1.088c-0.526,0-0.891,0.295-0.955,0.802c-0.012,0.106-0.012,0.221-0.012,0.33
		v0.172h-0.961l-0.001,0.84h1.557L214.326,664.511z"/>
	<circle fill="#8C8C8C" cx="214.702" cy="670.184" r="0.505"/>
	<path fill="#8C8C8C" d="M222.502,662.956l0.745-0.918l-4.34,0.64l0.688-4.291l-3.421,2.771l-1.57-4.108l-1.57,4.11l-3.413-2.776
		l0.694,4.35l-4.352-0.697l0.757,0.933c-16.289,3.625-28.507,18.184-28.507,35.547c0,20.084,16.34,36.423,36.422,36.423
		c20.083,0,36.423-16.339,36.423-36.423C251.057,681.133,238.815,666.562,222.502,662.956z M214.682,662.063
		c2.754,0,4.995,2.24,4.995,4.994s-2.241,4.994-4.995,4.994s-4.995-2.24-4.995-4.994S211.927,662.063,214.682,662.063z
		 M219.281,673.364c5.436,1.002,10.275,3.723,13.93,7.58h-2.34v1.746h-2.13v-1.746h-2.898v2.411h-1.713c0,0,0.013-3.671,0.013-3.708
		c0-0.826-0.672-1.498-1.499-1.498s-1.499,0.672-1.499,1.498c0,0.037,0.012,19.453,0.012,19.453l-2.972,2.738v1.445
		c-1.308,0.188-2.394,1.026-2.945,2.169v-29.635l0.994-2.877l3.357,2.73L219.281,673.364z M220.67,715.319
		c-0.74,0.29-1.269,1.007-1.269,1.851c0,1.098,0.891,1.987,1.989,1.987h2.505c1.099,0,1.988-0.891,1.988-1.987
		c0-0.844-0.526-1.561-1.268-1.851c3.39-1.181,5.827-4.396,5.827-8.188c0-1.964-1.455-3.572-3.342-3.846v-1.445l-2.973-2.738v-5.703
		h1.713v2.41h2.898v-1.822h2.13v1.822h2.898v-6.443h-2.898v1.56h-2.13v-1.56h-2.404v-1.977h2.404v-1.559h2.13v1.559h2.898v-5.842
		c4.014,4.518,6.455,10.461,6.455,16.967c0,13.908-11.154,25.252-24.985,25.575v-14.374
		C216.058,712.334,218.084,714.42,220.67,715.319z M216.848,707.131c0-0.934,0.674-1.703,1.559-1.861
		c0.075,1.105,0.987,1.984,2.113,1.984h4.254c1.125,0,2.038-0.877,2.112-1.984c0.882,0.162,1.553,0.932,1.553,1.861
		c0,3.582-2.468,5.746-5.795,6.568C219.316,712.877,216.848,710.713,216.848,707.131z M197.513,688.157
		c-0.136,0.181-0.23,0.394-0.23,0.636c0,0.17,0.047,0.323,0.117,0.467l-6.621,0.013c0.291-0.749,0.615-1.479,0.973-2.192
		L197.513,688.157z M193.336,684.349c0.75-1.123,1.586-2.185,2.499-3.174c0.46,1.623,1.467,3.082,2.791,4.129
		c-0.182,0.109-0.339,0.266-0.422,0.479c-0.053,0.138-0.07,0.276-0.062,0.414L193.336,684.349z M190.957,692.84
		c0,0,3.167-0.592,6.613-1.232c-0.026,0.178-0.025,0.361,0.045,0.541c0.046,0.119,0.118,0.217,0.196,0.307l-6.515,2.536
		c-0.91,0.557-1.174,1.675-0.647,2.523c0.254,0.411,0.653,0.698,1.124,0.81c0.471,0.112,0.957,0.031,1.368-0.223l5.723-3.537
		c0.04,0.176,0.107,0.346,0.237,0.488c0.085,0.094,0.188,0.16,0.293,0.216l-5.159,4.716c-0.648,0.848-0.49,1.985,0.305,2.588
		c0.796,0.604,1.936,0.444,2.538-0.352l4.106-5.426c0.095,0.147,0.214,0.281,0.384,0.366c0.09,0.045,0.186,0.06,0.28,0.075
		c0.021,0.016,0.039,0.03,0.059,0.044l-2.861,5.763c-0.291,0.994,0.25,1.969,1.182,2.235c0.931,0.266,1.904-0.275,2.171-1.207
		l1.65-5.774c0.71,0.213,1.463,0.33,2.241,0.33c0.634,0,1.05-0.054,1.642-0.195c-0.006,1.043-0.012,2.033-0.012,2.125
		c-0.139,0.15-5.247,5.701-5.247,5.701c-0.899,0.737-1.226,0.776-1.811,0.192l-0.17-0.17l-1.596,1.252l0.216,0.218
		c0.601,0.602,1.167,1.016,1.933,1.09c-1.109,0.584-2.057,1.083-2.223,1.17c-0.172-0.178-1-1.035-1.437-1.487
		c-0.064-1.137-1.002-2.044-2.155-2.044c-1.195,0-2.167,0.972-2.167,2.166v0.113l0.829,0.83v-0.656c0-0.146,0.058-0.283,0.16-0.387
		c0.213-0.213,0.562-0.213,0.774,0c0,0,0.639,0.694,1.063,1.157l-0.004,0.006l0.171,0.177c0.121,0.131,0.204,0.221,0.204,0.221
		l0.005-0.006l0.481,0.494l-0.623-0.001c-0.411-0.341-0.922-0.522-1.46-0.501c-0.579,0.022-1.114,0.27-1.507,0.695
		c-0.285,0.309-0.466,0.686-0.538,1.09c-2.394-3.894-3.776-8.469-3.776-13.363c0-2.053,0.25-4.048,0.709-5.963
		C190.073,692.823,190.485,692.927,190.957,692.84z M193.907,713.024c0-0.16,0.064-0.33,0.184-0.457
		c0.125-0.139,0.296-0.217,0.481-0.225l1.559,0.004c-0.778,0.178-1.449,0.688-1.818,1.42c-0.191-0.277-0.384-0.59-0.404-0.721
		C193.907,713.038,193.907,713.03,193.907,713.024z M195.892,715.299c0.033-0.143,0.12-0.263,0.242-0.341l3.269-1.846l0.915,0.94
		l-0.013,0.011l0.225,0.207l0.168,0.172l0.01-0.008l1.167,1.072c0.204,0.204,0.204,0.553-0.01,0.766
		c-0.103,0.103-0.241,0.16-0.387,0.16h-0.656l0.831,0.829h0.112c0.579,0.001,1.123-0.227,1.531-0.635
		c0.409-0.409,0.636-0.952,0.636-1.532c0-1.152-0.906-2.089-2.042-2.154c-0.256-0.256-0.62-0.619-0.802-0.801
		c0.521-0.33,9.575-6.076,10.418-6.61c-0.283,3.167-3.016,6.884-5.594,9.111c-1.18,1.18-1.633,2.496-1.633,3.637
		c0,1.007,0.353,1.876,0.871,2.395c0.454,0.452,1.145,0.59,1.719,0.337l0.363-0.159l-0.281-0.281
		c-0.457-0.457-0.62-1.254-0.62-1.848c0-1.191,0.309-1.797,0.883-2.422c0.122,0.12,0.378,0.378,0.738,0.737
		c-0.244,0.658-0.361,1.322-0.361,1.959c0,1.273,0.45,2.428,1.194,3.172c0.155,0.155,1.805,1.523,2.498,1.291l0.497-0.168
		l-0.423-0.309c-0.242-0.178-1.022-1.087-1.287-1.643c-0.212-0.442-0.338-0.976-0.338-1.538c0-0.905,0.371-1.955,1.189-2.774
		c0.043-0.064,1.852-4.523,2.772-6.672c0,0.049,0.001,0.422,0.001,0.422c0.006,0.506,0.011,1.006,0.011,1.496
		c0,2.595-0.157,4.897-1.298,6.04c-0.709,0.709-2.027,1.084-2.027,1.084l0.343,0.401c0.032,0.038,0.582,0.883,1.468,0.911
		c0.211,0.008,0.378-0.135,0.562-0.222c0.046,2.032,0.43,2.829,1.112,3.595c-6.817-0.201-12.973-3.077-17.449-7.618l-0.46-0.755
		c-0.055-0.087-0.083-0.186-0.083-0.287C195.877,715.383,195.882,715.341,195.892,715.299z M209.61,678.952l0.616-1.047h-2.546
		l0.298-1.089c0-0.523-0.425-0.95-0.95-0.95c-0.127,0-0.249,0.026-0.359,0.072c0.021-0.096,0.035-0.187,0.035-0.256
		c0-0.346-0.28-0.627-0.626-0.627s-0.627,0.281-0.627,0.627c0,0.069,0.014,0.16,0.035,0.256c-0.111-0.046-0.231-0.072-0.358-0.072
		c-0.524,0-0.949,0.427-0.949,0.95l0.297,1.089h-0.671c-0.462,0-0.846,0.328-0.933,0.763c-0.14-0.039-0.286-0.062-0.438-0.062
		c-0.863,0-1.562,0.699-1.562,1.562c0,0.27,0.069,0.522,0.188,0.743c0.265-0.487,0.779-0.818,1.373-0.818
		c0.531,0,1.001,0.267,1.282,0.673c0.033,0.047,0.063,0.096,0.092,0.146c0.081,0.149,0.127,0.317,0.154,0.491h-3.159
		c-0.863,0-1.562-0.7-1.562-1.562v0.326v0.354v0.326c0,0.863,0.699,1.562,1.562,1.562h2.994c-0.267,0.479-0.775,0.804-1.363,0.804
		c-0.03,0-0.062-0.002-0.093-0.005c0.282,0.408,0.754,0.677,1.287,0.677c0.667,0,1.235-0.419,1.459-1.008h4.231
		c0.862,0,1.562,0.698,1.562,1.562c0,0.401,0.002,0.967-0.397,1.396l-0.391,0.585l-2.666,4.112c-0.485,0.714-1.457,0.897-2.172,0.41
		c-0.712-0.484-0.898-1.487-0.413-2.2c0.62-0.345,0.863-1.059,0.748-1.801c-0.144-0.918-0.981-1.55-1.896-1.457l-0.525-0.012
		c-3.342,0-5.837-2.26-6.183-5.463c3.527-3.365,8.01-5.732,12.995-6.652l-0.371,2.312l3.396-2.759l1.146,2.947v4.562L209.61,678.952
		z M214.635,732.764c-18.886,0-34.25-15.365-34.25-34.251c0-16.707,12.027-30.65,27.878-33.646l0.477,0.588l-4.115,1.569
		l4.113,1.573l-2.778,3.418l4.35-0.693l-0.145,0.897c-12.586,2.134-22.205,13.108-22.205,26.294
		c0,14.709,11.967,26.677,26.676,26.677c14.71,0,26.677-11.968,26.677-26.677c0-13.178-9.606-24.147-22.184-26.291l-0.119-0.881
		l4.236,0.68l-2.665-3.462l4.004-1.529l-4.05-1.65l0.424-0.521c15.873,2.978,27.927,16.933,27.927,33.656
		C248.885,717.398,233.52,732.764,214.635,732.764z"/>
</g>
<g>
	<rect x="160.718" y="640.535" fill="none" width="315.283" height="113.761"/>
	<g>
		<path fill="#D8005B" d="M273.792,691.429c-7.891,0-9.67-4.523-9.67-9.555v-17.199h4.816v16.887c0,3.315,1.037,5.655,5.188,5.655
			c3.705,0,5.263-1.638,5.263-6.122v-16.42h4.778v16.106C284.167,687.959,280.388,691.429,273.792,691.429z"/>
		<path fill="#D8005B" d="M303.537,691c0,0-9.44-17.236-10.183-18.953c0.147,2.262,0.223,6.396,0.223,9.555V691h-4.668v-26.324
			h6.119c0,0,9.256,16.771,10.183,18.76c-0.186-2.652-0.259-7.332-0.259-10.569v-8.189h4.668V691H303.537z"/>
		<path fill="#D8005B" d="M315.288,691v-26.324h4.816V691H315.288z"/>
		<path fill="#D8005B" d="M337.438,691h-5.559l-8.706-26.324h5.262l4.854,15.404c0.482,1.481,1.038,3.237,1.482,5.147h0.074
			c0.369-1.793,0.776-3.236,1.48-5.459l4.928-15.094h4.929L337.438,691z"/>
		<path fill="#D8005B" d="M349.469,691v-26.324h13.74v4.252h-8.874v6.474h8.426v4.134h-8.426v7.138h8.874V691H349.469z"/>
		<path fill="#D8005B" d="M380.391,691l-6.966-10.881h-0.186V691h-4.816v-26.324c1.965-0.117,4.299-0.155,7.188-0.155
			c5.521,0,9.077,2.028,9.077,7.409c0,3.899-2.593,6.709-6.372,7.332c0.704,0.976,1.407,1.988,2.037,2.887l6.003,8.854h-5.966V691z
			 M375.13,668.653c-0.704,0-1.407,0.039-1.89,0.117v7.604c0.333,0.038,1,0.077,1.741,0.077c2.89,0,4.669-1.56,4.669-4.017
			C379.65,669.901,378.168,668.653,375.13,668.653z"/>
		<path fill="#D8005B" d="M394.499,691.429c-1.777,0-3.557-0.195-5.112-0.623l0.297-4.72c1.407,0.507,3.407,0.937,5.224,0.937
			c2.445,0,4.335-1.053,4.335-3.471c0-5.031-10.485-2.73-10.485-11.389c0-4.681,3.521-7.918,9.522-7.918
			c1.408,0,3.038,0.195,4.521,0.469l-0.26,4.445c-1.408-0.429-2.964-0.701-4.482-0.701c-2.778,0-4.188,1.325-4.188,3.197
			c0,4.72,10.522,2.964,10.522,11.192C404.392,687.802,400.649,691.429,394.499,691.429z"/>
		<path fill="#D8005B" d="M408.281,691v-26.324h4.816V691H408.281z"/>
		<path fill="#D8005B" d="M427.695,669.006V691h-4.816v-21.994h-6.483v-4.33h17.784v4.33H427.695z"/>
		<path fill="#D8005B" d="M437.982,691v-26.324h14.313v4.252h-9.243v6.474h8.773v4.134h-8.773v7.138h9.243V691H437.982z
			 M443.325,662.961l-1.716-2.849l6.825-4.29l2.067,3.434L443.325,662.961z"/>
		<path fill="#D8005B" d="M271.591,733.156c-2.729,0-5.108-0.117-7.332-0.194v-26.247c2.066-0.078,5.267-0.194,8.503-0.194
			c8.149,0,13.338,3.627,13.338,12.87C286.099,728.438,280.171,733.156,271.591,733.156z M272.409,710.771
			c-1.17,0-2.262,0.039-3.08,0.117v17.744c0.701,0.117,1.754,0.194,2.77,0.194c4.953,0,8.541-2.808,8.541-9.048
			C280.639,714.125,278.415,710.771,272.409,710.771z"/>
		<path fill="#D8005B" d="M289.53,733v-26.324h14.312v4.252H294.6v6.474h8.774v4.134H294.6v7.138h9.241V733H289.53z"/>
		<path fill="#D8005B" d="M340.151,712.136c-2.105-0.819-4.523-1.326-6.98-1.326c-5.188,0-8.932,3.275-8.932,9.164
			c0,5.577,3.043,8.854,8.385,8.854c1.248,0,2.341-0.155,3.354-0.468v-9.165h5.069v12.559c-2.612,1.053-5.851,1.638-9.009,1.638
			c-8.346,0-13.299-4.914-13.299-12.947c0-8.268,5.615-14.157,14.741-14.157c2.613,0,5.188,0.469,7.449,1.133L340.151,712.136z"/>
		<path fill="#D8005B" d="M346.431,733v-26.324h14.312v4.252H351.5v6.474h8.775v4.134H351.5v7.138h9.243V733H346.431z"/>
		<path fill="#D8005B" d="M381.398,733c0,0-9.932-17.236-10.71-18.953c0.155,2.262,0.232,6.396,0.232,9.555V733h-4.914v-26.324h6.45
			c0,0,9.735,16.771,10.71,18.759c-0.194-2.651-0.272-7.331-0.272-10.568v-8.189h4.914V733H381.398z"/>
		<path fill="#D8005B" d="M393.074,733v-26.324h14.312v4.252h-9.243v6.474h8.774v4.134h-8.774v7.138h9.243V733H393.074z
			 M401.771,705l-7.176-3.705l2.146-3.473l6.785,4.29L401.771,705z"/>
		<path fill="#D8005B" d="M425.521,733h-5.851l-9.165-26.324h5.538l5.108,15.404c0.507,1.481,1.092,3.237,1.562,5.148h0.077
			c0.391-1.795,0.818-3.237,1.561-5.46l5.187-15.094h5.188L425.521,733z"/>
		<path fill="#D8005B" d="M438.04,733v-26.324h14.313v4.252h-9.243v6.474h8.774v4.134h-8.774v7.138h9.243V733H438.04z"/>
	</g>
</g>
</svg>
